# File exported by Houdini 17.0.352 (www.sidefx.com)
# 42 points
# 240 vertices
# 80 primitives
# Bounds: [-1, -0.9510566, -1] to [1, 0.9510566, 1]
g 
v 0 0 -1
v 0 0.525731206 -0.850650787
v 0.49999997 0.162460104 -0.850650787
v 0 0.894427359 -0.447213143
v 0.49999997 0.688191354 -0.52573061
v 0.850650847 0.276393682 -0.447213203
v 0.309017003 -0.425325423 -0.850650847
v 0.809017241 -0.262865394 -0.525730789
v 0.525731206 -0.723606944 -0.447213262
v -0.309017003 -0.425325423 -0.850650847
v 0 -0.850651026 -0.525730729
v -0.525731206 -0.723606944 -0.447213262
v -0.49999997 0.162460104 -0.850650787
v -0.809017241 -0.262865394 -0.525730789
v -0.850650847 0.276393682 -0.447213203
v -0.49999997 0.688191354 -0.52573061
v -0.309016973 0.9510566 0
v -0.809016824 0.587785423 0
v -0.525731206 0.723606944 0.447213262
v -1 0 0
v -0.809016824 -0.587785423 0
v -0.850650847 -0.276393682 0.447213203
v -0.309016973 -0.9510566 0
v 0.309016973 -0.9510566 0
v 0 -0.894427359 0.447213143
v 0.809016824 -0.587785423 0
v 1 0 0
v 0.850650847 -0.276393682 0.447213203
v 0.809016824 0.587785423 0
v 0.309016973 0.9510566 0
v 0.525731206 0.723606944 0.447213262
v 0 0.850651026 0.525730729
v -0.809017241 0.262865394 0.525730789
v -0.49999997 -0.688191354 0.52573061
v 0.49999997 -0.688191354 0.52573061
v 0.809017241 0.262865394 0.525730789
v 0 0 1
v 0.309017003 0.425325423 0.850650847
v -0.309017003 0.425325423 0.850650847
v 0.49999997 -0.162460104 0.850650787
v 0 -0.525731206 0.850650787
v -0.49999997 -0.162460104 0.850650787
vn 0.194738656 0.268034875 -0.943522155
vn 0.194738671 0.268034875 -0.943522215
vn 0.194738656 0.268034875 -0.943522215
vn 0.194738656 0.72404331 -0.661693335
vn 0.194738686 0.724043369 -0.661693335
vn 0.194738656 0.724043369 -0.661693335
vn 0.628428221 0.408949554 -0.661693454
vn 0.628428221 0.408949554 -0.661693454
vn 0.628428221 0.408949584 -0.661693513
vn 0.356822282 0.491123825 -0.794654191
vn 0.356822252 0.491123825 -0.794654191
vn 0.356822252 0.491123825 -0.794654131
vn 0.315093964 -0.102380075 -0.943522215
vn 0.315093964 -0.102380075 -0.943522155
vn 0.315093964 -0.102380075 -0.943522215
vn 0.748783708 0.0385343693 -0.661693394
vn 0.748783648 0.0385343693 -0.661693454
vn 0.748783648 0.0385343619 -0.661693394
vn 0.583129048 -0.471298546 -0.661693454
vn 0.583128989 -0.471298546 -0.661693454
vn 0.583128989 -0.471298546 -0.661693454
vn 0.577350497 -0.187592357 -0.794654429
vn 0.577350497 -0.187592357 -0.794654369
vn 0.577350497 -0.187592357 -0.794654369
vn 0 -0.331309259 -0.943522215
vn 0 -0.331309259 -0.943522215
vn 0 -0.331309259 -0.943522215
vn 0.268034905 -0.700227857 -0.661693394
vn 0.268034905 -0.700227916 -0.661693454
vn 0.268034905 -0.700227916 -0.661693513
vn -0.268034905 -0.700227916 -0.661693513
vn -0.268034905 -0.700227916 -0.661693454
vn -0.268034905 -0.700227857 -0.661693394
vn -0 -0.607062221 -0.794654191
vn -0 -0.607062221 -0.794654191
vn -0 -0.60706228 -0.794654191
vn -0.315093964 -0.102380075 -0.943522215
vn -0.315093964 -0.102380075 -0.943522155
vn -0.315093964 -0.102380075 -0.943522215
vn -0.583128989 -0.471298546 -0.661693454
vn -0.583128989 -0.471298546 -0.661693454
vn -0.583129048 -0.471298546 -0.661693454
vn -0.748783648 0.0385343619 -0.661693394
vn -0.748783648 0.0385343693 -0.661693454
vn -0.748783708 0.0385343693 -0.661693394
vn -0.577350497 -0.187592357 -0.794654369
vn -0.577350497 -0.187592357 -0.794654429
vn -0.577350497 -0.187592357 -0.794654369
vn -0.194738656 0.268034875 -0.943522215
vn -0.194738671 0.268034875 -0.943522215
vn -0.194738656 0.268034875 -0.943522155
vn -0.628428221 0.408949584 -0.661693513
vn -0.628428221 0.408949554 -0.661693454
vn -0.628428221 0.408949554 -0.661693454
vn -0.194738656 0.724043369 -0.661693335
vn -0.194738686 0.724043369 -0.661693335
vn -0.194738656 0.72404331 -0.661693335
vn -0.356822252 0.491123825 -0.794654191
vn -0.356822282 0.491123825 -0.794654191
vn -0.356822252 0.491123825 -0.794654131
vn -0.315093607 0.88969779 -0.330384225
vn -0.315093607 0.88969785 -0.330384254
vn -0.315093607 0.88969785 -0.330384254
vn -0.74878335 0.574604154 -0.330384046
vn -0.74878335 0.574604154 -0.330384076
vn -0.74878329 0.574604154 -0.330384016
vn -0.58312881 0.802607954 0.125623703
vn -0.58312881 0.802608013 0.125623703
vn -0.58312875 0.802607894 0.125623688
vn -0.577350318 0.794654489 -0.187592164
vn -0.577350318 0.794654489 -0.187592179
vn -0.577350318 0.794654489 -0.187592179
vn -0.943522155 -0.0247399788 -0.330384254
vn -0.943522155 -0.0247399807 -0.330384314
vn -0.943522215 -0.0247399788 -0.330384314
vn -0.777867615 -0.534572959 -0.330384225
vn -0.777867615 -0.534572959 -0.330384195
vn -0.777867675 -0.534572959 -0.330384195
vn -0.943522155 -0.306569099 0.12562345
vn -0.943522155 -0.306569099 0.12562345
vn -0.943522096 -0.306569099 0.125623435
vn -0.934172392 -0.3035312 -0.187592149
vn -0.934172332 -0.3035312 -0.187592149
vn -0.934172392 -0.3035312 -0.187592149
vn -0.268034935 -0.90498817 -0.330384344
vn -0.268034935 -0.90498817 -0.330384344
vn -0.268034935 -0.90498811 -0.330384314
vn 0.268034935 -0.90498817 -0.330384344
vn 0.268034935 -0.90498811 -0.330384314
vn 0.268034935 -0.90498817 -0.330384344
vn -0 -0.992078006 0.125623822
vn -0 -0.992077947 0.125623807
vn -0 -0.992077947 0.125623807
vn 0 -0.982246935 -0.187592357
vn 0 -0.982246995 -0.187592357
vn 0 -0.982246935 -0.187592357
vn 0.777867615 -0.534572959 -0.330384225
vn 0.777867675 -0.534572959 -0.330384195
vn 0.777867615 -0.534572959 -0.330384195
vn 0.943522155 -0.0247399788 -0.330384254
vn 0.943522215 -0.0247399788 -0.330384314
vn 0.943522155 -0.0247399807 -0.330384314
vn 0.943522155 -0.306569099 0.12562345
vn 0.943522096 -0.306569099 0.125623435
vn 0.943522155 -0.306569099 0.12562345
vn 0.934172392 -0.3035312 -0.187592149
vn 0.934172332 -0.3035312 -0.187592149
vn 0.934172392 -0.3035312 -0.187592149
vn 0.74878335 0.574604154 -0.330384046
vn 0.74878329 0.574604154 -0.330384016
vn 0.74878335 0.574604154 -0.330384076
vn 0.315093637 0.889697909 -0.330384254
vn 0.315093607 0.88969785 -0.330384225
vn 0.315093607 0.88969785 -0.330384225
vn 0.58312881 0.802607954 0.125623703
vn 0.58312875 0.802607894 0.125623688
vn 0.58312881 0.802608013 0.125623703
vn 0.577350318 0.794654489 -0.187592179
vn 0.577350318 0.794654489 -0.187592179
vn 0.577350318 0.794654489 -0.187592164
vn -0 0.992077947 -0.125623807
vn -0 0.992078006 -0.125623822
vn -0 0.992077947 -0.125623807
vn -0.268034935 0.90498811 0.330384314
vn -0.268034935 0.90498817 0.330384344
vn -0.268034935 0.90498817 0.330384344
vn 0.268034935 0.90498817 0.330384344
vn 0.268034935 0.90498817 0.330384344
vn 0.268034935 0.90498811 0.330384314
vn -0 0.982246935 0.187592357
vn -0 0.982246935 0.187592357
vn -0 0.982246995 0.187592357
vn -0.943522096 0.306569099 -0.125623435
vn -0.943522096 0.306569129 -0.125623435
vn -0.943522155 0.306569129 -0.12562345
vn -0.943522215 0.0247399788 0.330384314
vn -0.943522155 0.0247399788 0.330384254
vn -0.943522155 0.0247399807 0.330384314
vn -0.777867675 0.534572959 0.330384195
vn -0.777867615 0.534572959 0.330384225
vn -0.777867615 0.534572959 0.330384195
vn -0.934172392 0.30353117 0.187592149
vn -0.934172392 0.3035312 0.187592149
vn -0.934172332 0.30353117 0.187592149
vn -0.58312875 -0.802607894 -0.125623688
vn -0.58312881 -0.802607954 -0.125623703
vn -0.58312881 -0.802608013 -0.125623703
vn -0.315093607 -0.88969785 0.330384225
vn -0.315093637 -0.889697909 0.330384254
vn -0.315093607 -0.88969785 0.330384225
vn -0.74878329 -0.574604154 0.330384016
vn -0.74878335 -0.574604154 0.330384046
vn -0.74878335 -0.574604154 0.330384076
vn -0.577350318 -0.794654489 0.187592179
vn -0.577350318 -0.794654489 0.187592164
vn -0.577350318 -0.794654489 0.187592179
vn 0.58312881 -0.802608013 -0.125623703
vn 0.58312881 -0.802607954 -0.125623703
vn 0.58312875 -0.802607894 -0.125623688
vn 0.74878335 -0.574604154 0.330384076
vn 0.74878335 -0.574604154 0.330384046
vn 0.74878329 -0.574604154 0.330384016
vn 0.315093607 -0.88969785 0.330384225
vn 0.315093637 -0.889697909 0.330384254
vn 0.315093607 -0.88969785 0.330384225
vn 0.577350318 -0.794654489 0.187592164
vn 0.577350318 -0.794654489 0.187592179
vn 0.577350318 -0.794654489 0.187592179
vn 0.943522155 0.306569129 -0.12562345
vn 0.943522096 0.306569129 -0.125623435
vn 0.943522096 0.306569099 -0.125623435
vn 0.777867615 0.534572959 0.330384195
vn 0.777867615 0.534572959 0.330384225
vn 0.777867675 0.534572959 0.330384195
vn 0.943522155 0.0247399807 0.330384314
vn 0.943522155 0.0247399788 0.330384254
vn 0.943522215 0.0247399788 0.330384314
vn 0.934172392 0.3035312 0.187592149
vn 0.934172392 0.30353117 0.187592149
vn 0.934172332 0.30353117 0.187592149
vn -0 0.331309259 0.943522215
vn -0 0.331309259 0.943522215
vn -0 0.331309259 0.943522215
vn 0.268034905 0.700227857 0.661693394
vn 0.268034905 0.700227916 0.661693454
vn 0.268034905 0.700227916 0.661693513
vn -0.268034905 0.700227916 0.661693513
vn -0.268034905 0.700227916 0.661693454
vn -0.268034905 0.700227857 0.661693394
vn 0 0.607062221 0.794654191
vn 0 0.607062221 0.794654191
vn 0 0.60706228 0.794654191
vn 0.315093964 0.102380075 0.943522215
vn 0.315093964 0.102380075 0.943522155
vn 0.315093964 0.102380075 0.943522215
vn 0.748783708 -0.0385343693 0.661693394
vn 0.748783648 -0.0385343693 0.661693454
vn 0.748783648 -0.0385343619 0.661693394
vn 0.583129048 0.471298546 0.661693454
vn 0.583128989 0.471298546 0.661693454
vn 0.583128989 0.471298546 0.661693454
vn 0.577350497 0.187592357 0.794654429
vn 0.577350497 0.187592357 0.794654369
vn 0.577350497 0.187592357 0.794654369
vn 0.194738656 -0.268034875 0.943522155
vn 0.194738671 -0.268034875 0.943522215
vn 0.194738656 -0.268034875 0.943522215
vn 0.194738656 -0.72404331 0.661693335
vn 0.194738686 -0.724043369 0.661693335
vn 0.194738656 -0.724043369 0.661693335
vn 0.628428221 -0.408949554 0.661693454
vn 0.628428221 -0.408949554 0.661693454
vn 0.628428221 -0.408949584 0.661693513
vn 0.356822282 -0.491123825 0.794654191
vn 0.356822252 -0.491123825 0.794654191
vn 0.356822252 -0.491123825 0.794654131
vn -0.194738656 -0.268034875 0.943522215
vn -0.194738671 -0.268034875 0.943522215
vn -0.194738656 -0.268034875 0.943522155
vn -0.628428221 -0.408949584 0.661693513
vn -0.628428221 -0.408949554 0.661693454
vn -0.628428221 -0.408949554 0.661693454
vn -0.194738656 -0.724043369 0.661693335
vn -0.194738686 -0.724043369 0.661693335
vn -0.194738656 -0.72404331 0.661693335
vn -0.356822252 -0.491123825 0.794654191
vn -0.356822282 -0.491123825 0.794654191
vn -0.356822252 -0.491123825 0.794654131
vn -0.315093964 0.102380075 0.943522215
vn -0.315093964 0.102380075 0.943522155
vn -0.315093964 0.102380075 0.943522215
vn -0.583128989 0.471298546 0.661693454
vn -0.583128989 0.471298546 0.661693454
vn -0.583129048 0.471298546 0.661693454
vn -0.748783648 -0.0385343619 0.661693394
vn -0.748783648 -0.0385343693 0.661693454
vn -0.748783708 -0.0385343693 0.661693394
vn -0.577350497 0.187592357 0.794654369
vn -0.577350497 0.187592357 0.794654429
vn -0.577350497 0.187592357 0.794654369
g 
f 3//1 1//2 2//3
f 5//4 2//5 4//6
f 6//7 3//8 5//9
f 3//10 2//11 5//12
f 7//13 1//14 3//15
f 8//16 3//17 6//18
f 9//19 7//20 8//21
f 7//22 3//23 8//24
f 10//25 1//26 7//27
f 11//28 7//29 9//30
f 12//31 10//32 11//33
f 10//34 7//35 11//36
f 13//37 1//38 10//39
f 14//40 10//41 12//42
f 15//43 13//44 14//45
f 13//46 10//47 14//48
f 2//49 1//50 13//51
f 16//52 13//53 15//54
f 4//55 2//56 16//57
f 2//58 13//59 16//60
f 17//61 4//62 16//63
f 18//64 16//65 15//66
f 19//67 17//68 18//69
f 17//70 16//71 18//72
f 20//73 15//74 14//75
f 21//76 14//77 12//78
f 22//79 20//80 21//81
f 20//82 14//83 21//84
f 23//85 12//86 11//87
f 24//88 11//89 9//90
f 25//91 23//92 24//93
f 23//94 11//95 24//96
f 26//97 9//98 8//99
f 27//100 8//101 6//102
f 28//103 26//104 27//105
f 26//106 8//107 27//108
f 29//109 6//110 5//111
f 30//112 5//113 4//114
f 31//115 29//116 30//117
f 29//118 5//119 30//120
f 30//121 4//122 17//123
f 32//124 17//125 19//126
f 31//127 30//128 32//129
f 30//130 17//131 32//132
f 18//133 15//134 20//135
f 33//136 20//137 22//138
f 19//139 18//140 33//141
f 18//142 20//143 33//144
f 21//145 12//146 23//147
f 34//148 23//149 25//150
f 22//151 21//152 34//153
f 21//154 23//155 34//156
f 24//157 9//158 26//159
f 35//160 26//161 28//162
f 25//163 24//164 35//165
f 24//166 26//167 35//168
f 27//169 6//170 29//171
f 36//172 29//173 31//174
f 28//175 27//176 36//177
f 27//178 29//179 36//180
f 39//181 37//182 38//183
f 32//184 38//185 31//186
f 19//187 39//188 32//189
f 39//190 38//191 32//192
f 38//193 37//194 40//195
f 36//196 40//197 28//198
f 31//199 38//200 36//201
f 38//202 40//203 36//204
f 40//205 37//206 41//207
f 35//208 41//209 25//210
f 28//211 40//212 35//213
f 40//214 41//215 35//216
f 41//217 37//218 42//219
f 34//220 42//221 22//222
f 25//223 41//224 34//225
f 41//226 42//227 34//228
f 42//229 37//230 39//231
f 33//232 39//233 19//234
f 22//235 42//236 33//237
f 42//238 39//239 33//240
