# This file uses centimeters as units for non-parametric coordinates.

v -0.500000 -0.500000 0.500000
v -0.500000 0.500000 0.500000
v -0.500000 0.500000 0.455909
v -0.500000 -0.500000 0.455909
v -0.455909 -0.500000 0.455909
v -0.455909 -0.500000 0.500000
v -0.455909 0.500000 0.500000
v -0.455909 0.500000 0.455909
v -0.455909 0.423077 0.500000
v -0.500000 0.423077 0.500000
v -0.500000 0.423077 0.455909
v -0.455909 0.423077 0.455909
v -0.500000 -0.500000 -0.500000
v -0.500000 0.500000 -0.500000
v -0.500000 0.500000 -0.455909
v -0.500000 -0.500000 -0.455909
v -0.455909 -0.500000 -0.455909
v -0.455909 -0.500000 -0.500000
v -0.455909 0.500000 -0.500000
v -0.455909 0.500000 -0.455909
v -0.455909 0.423077 -0.500000
v -0.500000 0.423077 -0.500000
v -0.500000 0.423077 -0.455909
v -0.455909 0.423077 -0.455909
v 0.500000 -0.500000 0.500000
v 0.500000 0.500000 0.500000
v 0.500000 0.500000 0.455909
v 0.500000 -0.500000 0.455909
v 0.455909 -0.500000 0.455909
v 0.455909 -0.500000 0.500000
v 0.455909 0.500000 0.500000
v 0.455909 0.500000 0.455909
v 0.455909 0.423077 0.500000
v 0.500000 0.423077 0.500000
v 0.500000 0.423077 0.455909
v 0.455909 0.423077 0.455909
v 0.500000 -0.500000 -0.500000
v 0.500000 0.500000 -0.500000
v 0.500000 0.500000 -0.455909
v 0.500000 -0.500000 -0.455909
v 0.455909 -0.500000 -0.455909
v 0.455909 -0.500000 -0.500000
v 0.455909 0.500000 -0.500000
v 0.455909 0.500000 -0.455909
v 0.455909 0.423077 -0.500000
v 0.500000 0.423077 -0.500000
v 0.500000 0.423077 -0.455909
v 0.455909 0.423077 -0.455909
v -0.249975 0.423077 0.455909
v -0.249975 0.423077 0.500000
v -0.249975 -0.500000 0.500000
v -0.249975 -0.500000 0.455909
v -0.249975 -0.500000 -0.455909
v -0.249975 -0.500000 -0.500000
v -0.249975 0.423077 -0.500000
v -0.249975 0.423077 -0.455909
v 0.249975 0.423077 0.455909
v 0.249975 0.423077 0.500000
v 0.249975 -0.500000 0.500000
v 0.249975 -0.500000 0.455909
v 0.249975 -0.500000 -0.455909
v 0.249975 -0.500000 -0.500000
v 0.249975 0.423077 -0.500000
v 0.249975 0.423077 -0.455909
v 0.249975 0.423077 -0.249975
v 0.455909 0.423077 -0.249975
v 0.500000 0.423077 -0.249975
v 0.500000 -0.500000 -0.249975
v 0.455909 -0.500000 -0.249975
v 0.249975 -0.500000 -0.249975
v -0.249975 -0.500000 -0.249975
v -0.455909 -0.500000 -0.249975
v -0.500000 -0.500000 -0.249975
v -0.500000 0.423077 -0.249975
v -0.455909 0.423077 -0.249975
v -0.249975 0.423077 -0.249975
v 0.249975 0.423077 0.249975
v 0.455909 0.423077 0.249975
v 0.500000 0.423077 0.249975
v 0.500000 -0.500000 0.249975
v 0.455909 -0.500000 0.249975
v 0.249975 -0.500000 0.249975
v -0.249975 -0.500000 0.249975
v -0.455909 -0.500000 0.249975
v -0.500000 -0.500000 0.249975
v -0.500000 0.423077 0.249975
v -0.455909 0.423077 0.249975
v -0.249975 0.423077 0.249975
vt 0.204961 0.073135
vt 0.245866 0.076705
vt 0.205221 0.090637
vt 0.205935 0.073135
vt 0.245846 0.076690
vt 0.205109 0.089910
vt 0.259645 0.685182
vt 0.205676 0.090218
vt 0.204690 0.090278
vt 0.298992 0.650605
vt 0.286917 0.635304
vt 0.298990 0.635304
vt 0.245836 0.076671
vt 0.205909 0.089234
vt 0.204961 0.089233
vt 0.223446 0.052630
vt 0.250163 0.061277
vt 0.231039 0.098046
vt 0.204322 0.089399
vt 0.050072 0.731982
vt 0.050072 0.282278
vt 0.089731 0.282278
vt 0.184802 0.089233
vt 0.184802 0.073135
vt 0.251000 0.065757
vt 0.183827 0.089233
vt 0.259658 0.932535
vt 0.286940 0.982422
vt 0.250998 0.066732
vt 0.267098 0.066733
vt 0.184802 0.090575
vt 0.184802 0.091344
vt 0.299012 0.967115
vt 0.268440 0.065758
vt 0.183827 0.091344
vt 0.299010 0.982420
vt 0.268440 0.066732
vt 0.185777 0.090575
vt 0.147286 0.105243
vt 0.179726 0.158217
vt 0.218217 0.143549
vt 0.089731 0.731982
vt 0.909910 0.097041
vt 0.185777 0.089233
vt 0.072412 0.054956
vt 0.073581 0.052832
vt 0.072284 0.054911
vt 0.245834 0.076747
vt 0.064505 0.685165
vt 0.037218 0.635267
vt 0.245837 0.076745
vt 0.245814 0.076700
vt 0.025137 0.650587
vt 0.072308 0.055071
vt 0.072338 0.055175
vt 0.072198 0.055199
vt 0.072172 0.055081
vt 0.025128 0.635273
vt 0.245857 0.076706
vt 0.038391 0.067132
vt 0.072518 0.055037
vt 0.081308 0.070471
vt 0.047178 0.082564
vt 0.724673 0.097041
vt 0.724673 0.057381
vt 0.909910 0.057381
vt 0.074677 0.056266
vt 0.076374 0.053993
vt 0.076513 0.054056
vt 0.074832 0.056307
vt 0.064518 0.932525
vt 0.037231 0.982408
vt 0.251000 0.086890
vt 0.267098 0.086890
vt 0.025164 0.967098
vt 0.075159 0.056771
vt 0.075390 0.056529
vt 0.075795 0.056722
vt 0.075527 0.057010
vt 0.025155 0.982401
vt 0.268440 0.086890
vt 0.074856 0.057012
vt 0.152416 0.072769
vt 0.117614 0.179504
vt 0.040060 0.163769
vt 0.724673 0.282278
vt 0.909910 0.282278
vt 0.074322 0.056519
vt 0.909910 0.731982
vt 0.724673 0.731982
vt 0.724673 0.917219
vt 0.245831 0.076680
vt 0.245866 0.076705
vt 0.230548 0.635295
vt 0.201714 0.696199
vt 0.201720 0.921512
vt 0.230549 0.982427
vt 0.251000 0.071284
vt 0.267098 0.071286
vt 0.909910 0.917219
vt 0.909910 0.956879
vt 0.724673 0.956879
vt 0.949569 0.282278
vt 0.949569 0.731982
vt 0.089731 0.917219
vt 0.245821 0.076697
vt 0.245849 0.076734
vt 0.093634 0.635267
vt 0.122453 0.696189
vt 0.122458 0.921508
vt 0.093632 0.982423
vt 0.251000 0.082337
vt 0.267098 0.082338
vt 0.050072 0.917219
vt 0.949569 0.917219
vt 0.274969 0.282278
vt 0.274969 0.731982
vt 0.274969 0.097041
vt 0.073984 0.055906
vt 0.075715 0.053708
vt 0.025172 0.895624
vt 0.073216 0.859084
vt 0.129962 0.849574
vt 0.194214 0.849577
vt 0.250960 0.859091
vt 0.299014 0.895633
vt 0.189355 0.073135
vt 0.189355 0.089233
vt 0.089732 0.097041
vt 0.089731 0.057381
vt 0.274969 0.057381
vt 0.274969 0.917219
vt 0.072412 0.054956
vt 0.074168 0.053048
vt 0.025163 0.722082
vt 0.073211 0.758614
vt 0.129960 0.768127
vt 0.194211 0.768131
vt 0.250956 0.758620
vt 0.299006 0.722076
vt 0.200408 0.073135
vt 0.200408 0.089233
vt 0.274969 0.956879
vt 0.089731 0.956879
vt 0.949569 0.097041
vt 0.050072 0.097041
vt 0.267098 0.087865
vt 0.268440 0.087865
vt 0.251000 0.087865
vt 0.245812 0.076698
vt 0.245854 0.076675
vt 0.073453 0.052787
vt 0.267098 0.065757
vt 0.183827 0.090575
vt 0.183827 0.073135
vt 0.245835 0.076670
vt 0.245837 0.076697
vt 0.245867 0.076703
vn -1.000000 0.000000 0.000000
vn -1.000000 0.000000 0.000000
vn -1.000000 0.000000 0.000000
vn -1.000000 0.000000 0.000000
vn -1.000000 0.000000 0.000000
vn -1.000000 0.000000 0.000000
vn -1.000000 0.000000 0.000000
vn -1.000000 0.000000 0.000000
vn 0.000000 0.000000 1.000000
vn 0.000000 0.000000 1.000000
vn 0.000000 0.000000 1.000000
vn 0.000000 0.000000 1.000000
vn 0.000000 -1.000000 0.000000
vn 0.000000 -1.000000 0.000000
vn 0.000000 -1.000000 0.000000
vn 0.000000 -1.000000 0.000000
vn 0.000001 1.000000 0.000001
vn 0.000001 1.000000 0.000001
vn 0.000001 1.000000 0.000001
vn 0.000001 1.000000 0.000001
vn 0.000000 -1.000000 0.000000
vn 0.000000 -1.000000 0.000000
vn 0.000000 -1.000000 0.000000
vn 0.000000 -1.000000 0.000000
vn 0.000000 0.000000 1.000000
vn 0.000000 0.000000 1.000000
vn -1.000000 0.000000 0.000000
vn -1.000000 0.000000 0.000000
vn 1.000000 0.000000 0.000000
vn 1.000000 0.000000 0.000000
vn 1.000000 0.000000 0.000000
vn 1.000000 0.000000 0.000000
vn -1.000000 0.000000 0.000000
vn -1.000000 0.000000 0.000000
vn -1.000000 0.000000 0.000000
vn -1.000000 0.000000 0.000000
vn 0.000000 0.000000 -1.000000
vn 0.000000 0.000000 -1.000000
vn 0.000000 0.000000 -1.000000
vn 0.000000 0.000000 -1.000000
vn 0.000001 1.000000 -0.000001
vn 0.000001 1.000000 -0.000001
vn 0.000001 1.000000 -0.000001
vn 0.000001 1.000000 -0.000001
vn 0.000000 -1.000000 0.000000
vn 0.000000 -1.000000 0.000000
vn 0.000000 -1.000000 0.000000
vn 0.000000 -1.000000 0.000000
vn 0.000000 0.000000 -1.000000
vn 0.000000 0.000000 -1.000000
vn -1.000000 0.000000 0.000000
vn -1.000000 0.000000 0.000000
vn 1.000000 0.000000 0.000000
vn 1.000000 0.000000 0.000000
vn 1.000000 0.000000 0.000000
vn 1.000000 0.000000 0.000000
vn 0.000000 1.000000 0.000000
vn 0.000000 1.000000 0.000000
vn 0.000000 1.000000 0.000000
vn 0.000000 1.000000 0.000000
vn 0.000000 0.000000 1.000000
vn 0.000000 0.000000 1.000000
vn 0.000000 0.000000 1.000000
vn 0.000000 0.000000 1.000000
vn 0.000004 0.000000 -1.000000
vn 0.000004 0.000000 -1.000000
vn 0.000004 0.000000 -1.000000
vn 0.000004 0.000000 -1.000000
vn 1.000000 0.000000 0.000000
vn 1.000000 0.000000 0.000000
vn 1.000000 0.000000 0.000000
vn 1.000000 0.000000 0.000000
vn 0.000000 -1.000000 0.000000
vn 0.000000 -1.000000 0.000000
vn 0.000000 -1.000000 0.000000
vn 0.000000 -1.000000 0.000000
vn 0.000000 0.000000 1.000000
vn 0.000000 0.000000 1.000000
vn 0.000000 0.000000 1.000000
vn 0.000000 0.000000 1.000000
vn 0.000000 0.000000 1.000000
vn 0.000000 0.000000 1.000000
vn -0.000001 1.000000 0.000001
vn -0.000001 1.000000 0.000001
vn -0.000001 1.000000 0.000001
vn -0.000001 1.000000 0.000001
vn 0.000000 -1.000000 0.000000
vn 0.000000 -1.000000 0.000000
vn 0.000000 0.000000 1.000000
vn 0.000000 0.000000 1.000000
vn 1.000000 0.000000 0.000000
vn 1.000000 0.000000 0.000000
vn -1.000000 0.000000 0.000000
vn -1.000000 0.000000 0.000000
vn -1.000000 0.000000 0.000000
vn -1.000000 0.000000 0.000000
vn 0.000000 1.000000 0.000000
vn 0.000000 1.000000 0.000000
vn 0.000000 1.000000 0.000000
vn 0.000000 1.000000 0.000000
vn 0.000000 1.000000 0.000000
vn 0.000000 1.000000 0.000000
vn 0.000000 1.000000 0.000000
vn 0.000000 1.000000 0.000000
vn 1.000000 0.000000 0.000000
vn 1.000000 0.000000 0.000000
vn 1.000000 0.000000 0.000000
vn 1.000000 0.000000 0.000000
vn 1.000000 0.000000 0.000000
vn 1.000000 0.000000 0.000000
vn 1.000000 0.000000 0.000000
vn 1.000000 0.000000 0.000000
vn 0.000000 -1.000000 0.000000
vn 0.000000 -1.000000 0.000000
vn 0.000000 -1.000000 0.000000
vn 0.000000 -1.000000 0.000000
vn 0.000000 -1.000000 0.000000
vn 0.000000 -1.000000 0.000000
vn 0.000000 -1.000000 0.000000
vn 0.000000 -1.000000 0.000000
vn 0.000000 0.000000 -1.000000
vn 0.000000 0.000000 -1.000000
vn 0.000000 0.000000 -1.000000
vn 0.000000 0.000000 -1.000000
vn 0.000000 0.000000 -1.000000
vn 0.000000 0.000000 -1.000000
vn 0.000000 -1.000000 0.000000
vn 0.000000 -1.000000 0.000000
vn -0.000001 1.000000 -0.000001
vn -0.000001 1.000000 -0.000001
vn -0.000001 1.000000 -0.000001
vn -0.000001 1.000000 -0.000001
vn 0.000000 -1.000000 0.000000
vn 0.000000 -1.000000 0.000000
vn 0.000000 0.000000 -1.000000
vn 0.000000 0.000000 -1.000000
vn 1.000000 0.000000 0.000000
vn 1.000000 0.000000 0.000000
vn -1.000000 0.000000 0.000000
vn -1.000000 0.000000 0.000000
vn -1.000000 0.000000 0.000000
vn -1.000000 0.000000 0.000000
vn 0.000000 1.000000 0.000000
vn 0.000000 1.000000 0.000000
vn 0.000000 1.000000 0.000000
vn 0.000000 1.000000 0.000000
vn 0.000000 1.000000 0.000000
vn 0.000000 1.000000 0.000000
vn 0.000000 0.000000 1.000000
vn 0.000000 0.000000 1.000000
vn 0.000000 0.000000 1.000000
vn 0.000000 0.000000 1.000000
vn 0.000000 0.000000 -1.000000
vn 0.000000 0.000000 -1.000000
vn 0.000000 0.000000 -1.000000
vn 0.000000 0.000000 -1.000000
vn 0.000000 1.000000 0.000000
vn 0.000000 1.000000 0.000000
vn 0.000000 1.000000 0.000000
vn 0.000000 1.000000 0.000000
vn 0.000000 1.000000 0.000000
vn 0.000000 1.000000 0.000000
vn 0.000000 1.000000 0.000000
vn 0.000000 1.000000 0.000000
vn 0.000000 1.000000 0.000000
vn 0.000000 1.000000 0.000000
vn 0.000000 1.000000 0.000000
vn 0.000000 0.000000 1.000000
vn 0.000000 0.000000 1.000000
vn 0.000000 -1.000000 0.000000
vn 0.000000 -1.000000 0.000000
vn 0.000000 -1.000000 0.000000
vn 0.000000 -1.000000 0.000000
vn 0.000000 -1.000000 0.000000
vn 0.000000 -1.000000 0.000000
vn 0.000000 0.000000 -1.000000
vn 0.000000 0.000000 -1.000000
vn 0.000000 1.000000 0.000000
vn 0.000000 1.000000 0.000000
vn 0.000000 1.000000 0.000000
vn 0.000000 1.000000 0.000000
vn 0.000000 1.000000 0.000000
vn 0.000000 1.000000 0.000000
vn 0.000000 1.000000 0.000000
vn 0.000000 1.000000 0.000000
vn 0.000000 1.000000 0.000000
vn 0.000000 1.000000 0.000000
vn 0.000000 1.000000 0.000000
f 73/127/1 85/141/2 86/142/3 74/128/4
f 11/15/5 4/1/6 1/4/7 10/14/8
f 1/158/9 6/2/10 9/13/11 10/156/12
f 84/139/13 85/140/14 73/126/15 72/125/16
f 8/9/17 3/6/18 2/8/19 7/3/20
f 4/10/21 5/7/22 6/11/23 1/12/24
f 10/156/12 9/13/11 7/5/25 2/157/26
f 3/6/27 11/15/5 10/14/8 2/8/28
f 12/19/29 8/16/30 7/17/31 9/18/32
f 23/23/33 22/26/34 13/155/35 16/24/36
f 13/25/37 22/153/38 21/30/39 18/29/40
f 15/31/41 20/32/42 19/35/43 14/154/44
f 16/33/45 13/36/46 18/28/47 17/27/48
f 22/153/38 14/34/49 19/37/50 21/30/39
f 15/31/51 14/154/52 22/26/34 23/23/33
f 20/38/53 24/41/54 21/40/55 19/39/56
f 74/20/57 86/21/58 87/22/59 75/42/60
f 20/38/61 15/31/62 23/23/63 24/44/64
f 8/9/65 12/19/66 11/15/67 3/6/68
f 28/46/69 35/45/70 34/47/71 25/152/72
f 60/109/73 29/49/74 30/50/75 59/108/76
f 59/107/77 30/51/78 33/52/79 58/106/80
f 25/48/81 34/150/82 33/52/79 30/51/78
f 27/54/83 32/55/84 31/56/85 26/57/86
f 29/49/74 28/53/87 25/58/88 30/50/75
f 34/150/82 26/151/89 31/59/90 33/52/79
f 35/45/70 27/54/91 26/57/92 34/47/71
f 32/60/93 36/61/94 33/62/95 31/63/96
f 36/43/97 57/64/98 58/65/99 33/66/100
f 77/86/101 78/87/102 66/89/103 65/90/104
f 79/133/105 80/134/106 68/120/107 67/119/108
f 47/67/109 40/68/110 37/69/111 46/70/112
f 81/136/113 82/137/114 70/123/115 69/122/116
f 62/111/117 42/72/118 41/71/119 61/110/120
f 63/113/121 45/74/122 42/73/123 62/112/124
f 37/149/125 42/73/123 45/74/122 46/147/126
f 68/121/127 80/135/128 81/136/113 69/122/116
f 39/76/129 38/77/130 43/78/131 44/79/132
f 40/75/133 41/71/119 42/72/118 37/80/134
f 46/147/126 45/74/122 43/81/135 38/148/136
f 39/76/137 47/67/109 46/70/112 38/77/138
f 44/82/139 43/83/140 45/84/141 48/85/142
f 64/91/143 48/100/144 45/101/145 63/102/146
f 78/87/102 79/103/147 67/104/148 66/89/103
f 44/82/149 48/88/150 47/67/151 39/76/152
f 32/55/153 27/54/154 35/45/155 36/61/156
f 75/42/60 24/105/157 23/114/158 74/20/57
f 73/127/1 74/128/4 23/23/33 16/24/36
f 72/125/16 73/126/15 16/33/45 17/27/48
f 61/110/120 41/71/119 69/122/116 70/123/115
f 68/121/127 69/122/116 41/71/119 40/75/133
f 67/119/108 68/120/107 40/68/110 47/67/109
f 48/100/159 66/89/103 67/104/148 47/115/160
f 64/91/161 65/90/104 66/89/103 48/100/159
f 75/42/60 87/22/59 88/116/162 76/117/163
f 49/118/164 12/129/165 9/130/166 50/131/167
f 6/2/10 51/93/168 50/92/169 9/13/11
f 5/7/22 52/95/170 51/94/171 6/11/23
f 71/124/172 83/138/173 84/139/13 72/125/16
f 17/27/48 53/96/174 71/124/172 72/125/16
f 18/28/47 54/97/175 53/96/174 17/27/48
f 21/30/39 55/99/176 54/98/177 18/29/40
f 24/105/178 56/132/179 55/143/180 21/144/181
f 24/105/157 75/42/60 76/117/163 56/132/182
f 88/116/162 77/86/101 65/90/104 76/117/163
f 58/65/99 57/64/98 49/118/164 50/131/167
f 59/107/77 58/106/80 50/92/169 51/93/168
f 52/95/170 60/109/73 59/108/76 51/94/171
f 70/123/115 82/137/114 83/138/173 71/124/172
f 53/96/174 61/110/120 70/123/115 71/124/172
f 62/111/117 61/110/120 53/96/174 54/97/175
f 63/113/121 62/112/124 54/98/177 55/99/176
f 56/132/179 64/91/143 63/102/146 55/143/180
f 65/90/104 64/91/161 56/132/182 76/117/163
f 49/118/183 57/64/184 77/86/101 88/116/162
f 78/87/102 77/86/101 57/64/184 36/43/185
f 79/103/147 78/87/102 36/43/185 35/145/186
f 28/46/69 80/134/106 79/133/105 35/45/70
f 29/49/74 81/136/113 80/135/128 28/53/87
f 82/137/114 81/136/113 29/49/74 60/109/73
f 82/137/114 60/109/73 52/95/170 83/138/173
f 84/139/13 83/138/173 52/95/170 5/7/22
f 5/7/22 4/10/21 85/140/14 84/139/13
f 4/1/6 11/15/5 86/142/3 85/141/2
f 12/129/187 87/22/59 86/21/58 11/146/188
f 49/118/183 88/116/162 87/22/59 12/129/187
