# This file uses centimeters as units for non-parametric coordinates.

v -0.500000 -0.500000 0.500000
v 0.500000 -0.500000 0.500000
v -0.500000 0.500000 0.500000
v 0.500000 0.500000 0.500000
v -0.500000 0.500000 -0.500000
v 0.500000 0.500000 -0.500000
v -0.500000 -0.500000 -0.500000
v 0.500000 -0.500000 -0.500000
v -0.314977 0.500000 0.242302
v 0.314977 0.500000 0.242302
v -0.314977 0.984605 0.242302
v 0.314977 0.984605 0.242302
v -0.314977 0.984605 -0.242302
v 0.314977 0.984605 -0.242302
v -0.314977 0.500000 -0.242302
v 0.314977 0.500000 -0.242302
v -0.281443 1.064656 0.216506
v 0.281443 1.064656 0.216506
v 0.281443 1.064656 -0.216506
v -0.281443 1.064656 -0.216506
v -0.378691 0.984605 0.291316
v 0.378691 0.984605 0.291316
v 0.338374 1.041061 0.260301
v -0.338374 1.041061 0.260301
v 0.378691 0.984605 -0.291316
v 0.338374 1.041061 -0.260301
v -0.378691 0.984605 -0.291316
v -0.338374 1.041061 -0.260301
vt 0.618857 0.342298
vt 0.618857 0.695004
vt 0.618857 0.695004
vt 0.618857 0.342298
vt 0.971563 0.695004
vt 0.971563 0.342298
vt 0.971563 0.695004
vt 0.971563 0.342298
vt 0.880671 0.407556
vt 0.880671 0.629745
vt 0.709749 0.629745
vt 0.709749 0.407556
vt 0.550280 0.553825
vt 0.484589 0.077435
vt 0.907690 0.958931
vt 0.664385 0.958937
vt 0.452217 0.188631
vt 0.441374 0.524881
vt 0.127057 0.524881
vt 0.116214 0.188631
vt 0.525123 0.120667
vt 0.511926 0.592845
vt 0.474861 0.560139
vt 0.486936 0.153374
vt 0.664376 0.771765
vt 0.094817 0.633708
vt 0.007178 0.161088
vt 0.046739 0.771786
vt 0.907691 0.771764
vt 0.233907 0.958945
vt 0.056504 0.592845
vt 0.093570 0.560139
vt 0.043308 0.120666
vt 0.081495 0.153372
vt 0.561253 0.161087
vt 0.473614 0.633708
vt 0.018151 0.553825
vt 0.083842 0.077435
vt 0.233912 0.771777
vt 0.477209 0.771773
vt 0.046749 0.958952
vt 0.477216 0.958941
vn 0.000000 0.000000 1.000000
vn 0.000000 0.000000 1.000000
vn 0.000000 0.000000 1.000000
vn 0.000000 0.000000 1.000000
vn 0.000000 1.000000 0.000000
vn 0.000000 1.000000 0.000000
vn 0.000000 1.000000 0.000000
vn 0.000000 1.000000 0.000000
vn 0.000000 0.000000 -1.000000
vn 0.000000 0.000000 -1.000000
vn 0.000000 0.000000 -1.000000
vn 0.000000 0.000000 -1.000000
vn 0.000000 -1.000000 0.000000
vn 0.000000 -1.000000 0.000000
vn 0.000000 -1.000000 0.000000
vn 0.000000 -1.000000 0.000000
vn 1.000000 0.000000 0.000000
vn 1.000000 0.000000 0.000000
vn 1.000000 0.000000 0.000000
vn 1.000000 0.000000 0.000000
vn -1.000000 0.000000 0.000000
vn -1.000000 0.000000 0.000000
vn -1.000000 0.000000 0.000000
vn -1.000000 0.000000 0.000000
vn 0.000000 0.000000 1.000000
vn 0.000000 0.000000 1.000000
vn 0.000000 0.000000 1.000000
vn 0.000000 0.000000 1.000000
vn 0.000000 1.000000 0.000000
vn 0.000000 1.000000 0.000000
vn 0.000000 1.000000 0.000000
vn 0.000000 1.000000 0.000000
vn 0.000000 0.000000 -1.000000
vn 0.000000 0.000000 -1.000000
vn 0.000000 0.000000 -1.000000
vn 0.000000 0.000000 -1.000000
vn 0.000000 -1.000000 0.000000
vn 0.000000 -1.000000 0.000000
vn 0.000000 -1.000000 0.000000
vn 0.000000 -1.000000 0.000000
vn 1.000000 0.000000 0.000000
vn 1.000000 0.000000 0.000000
vn 1.000000 0.000000 0.000000
vn 1.000000 0.000000 0.000000
vn -1.000000 0.000000 0.000000
vn -1.000000 0.000000 0.000000
vn -1.000000 0.000000 0.000000
vn -1.000000 0.000000 0.000000
vn 0.000000 0.481488 0.876453
vn 0.000000 0.481488 0.876453
vn 0.000000 0.481488 0.876453
vn 0.000000 0.481488 0.876453
vn 0.813792 0.581156 0.000000
vn 0.813792 0.581156 0.000000
vn 0.813792 0.581156 0.000000
vn 0.813792 0.581156 0.000000
vn 0.000000 0.481488 -0.876453
vn 0.000000 0.481488 -0.876453
vn 0.000000 0.481488 -0.876453
vn 0.000000 0.481488 -0.876453
vn -0.813792 0.581156 0.000000
vn -0.813792 0.581156 0.000000
vn -0.813792 0.581156 0.000000
vn -0.813792 0.581156 0.000000
vn 0.000000 -1.000000 0.000000
vn 0.000000 -1.000000 0.000000
vn 0.000000 -1.000000 0.000000
vn 0.000000 -1.000000 0.000000
vn 0.000000 0.880365 0.474296
vn 0.000000 0.880365 0.474296
vn 0.000000 0.880365 0.474296
vn 0.000000 0.880365 0.474296
vn 0.000000 -1.000000 0.000000
vn 0.000000 -1.000000 0.000000
vn 0.000000 -1.000000 0.000000
vn 0.000000 -1.000000 0.000000
vn 0.382865 0.923804 0.000000
vn 0.382865 0.923804 0.000000
vn 0.382865 0.923804 0.000000
vn 0.382865 0.923804 0.000000
vn 0.000000 -1.000000 0.000000
vn 0.000000 -1.000000 0.000000
vn 0.000000 -1.000000 0.000000
vn 0.000000 -1.000000 0.000000
vn 0.000000 0.880365 -0.474297
vn 0.000000 0.880365 -0.474297
vn 0.000000 0.880365 -0.474297
vn 0.000000 0.880365 -0.474297
vn 0.000000 -1.000000 0.000000
vn 0.000000 -1.000000 0.000000
vn 0.000000 -1.000000 0.000000
vn 0.000000 -1.000000 0.000000
vn -0.382865 0.923804 0.000000
vn -0.382865 0.923804 0.000000
vn -0.382865 0.923804 0.000000
vn -0.382865 0.923804 0.000000
f 1/1/1 2/2/2 4/3/3 3/4/4
f 3/4/5 4/3/6 6/5/7 5/6/8
f 5/6/9 6/5/10 8/7/11 7/8/12
f 7/8/13 8/7/14 2/2/15 1/1/16
f 2/2/17 8/7/18 6/5/19 4/3/20
f 7/8/21 1/1/22 3/4/23 5/6/24
f 9/15/25 10/16/26 12/25/27 11/29/28
f 17/17/29 18/18/30 19/19/31 20/20/32
f 13/39/33 14/40/34 16/42/35 15/30/36
f 15/9/37 16/10/38 10/11/39 9/12/40
f 10/16/41 16/42/42 14/40/43 12/25/44
f 15/30/45 9/41/46 11/28/47 13/39/48
f 21/21/49 22/22/50 23/23/51 24/24/52
f 22/22/53 25/31/54 26/32/55 23/23/56
f 25/31/57 27/33/58 28/34/59 26/32/60
f 27/33/61 21/21/62 24/24/63 28/34/64
f 11/35/65 12/13/66 22/22/67 21/21/68
f 18/18/69 17/17/70 24/24/71 23/23/72
f 12/36/73 14/26/74 25/31/75 22/22/76
f 19/19/77 18/18/78 23/23/79 26/32/80
f 14/37/81 13/27/82 27/33/83 25/31/84
f 20/20/85 19/19/86 26/32/87 28/34/88
f 13/38/89 11/14/90 21/21/91 27/33/92
f 17/17/93 20/20/94 28/34/95 24/24/96
