# This file uses centimeters as units for non-parametric coordinates.

v 0.500000 -0.500000 -0.500000
v 0.500000 -0.500000 0.500000
v -0.500000 -0.500000 0.500000
v -0.500000 -0.500000 -0.500000
v 0.500000 0.500000 -0.500000
v 0.500000 0.500000 0.500000
v -0.500000 0.500000 0.500000
v -0.500000 0.500000 -0.500000
v -0.455909 0.500000 -0.500000
v -0.455909 0.500000 0.500000
v -0.455909 -0.500000 0.500000
v -0.455909 -0.500000 -0.500000
v 0.455909 0.500000 0.500000
v 0.455909 0.500000 -0.500000
v 0.455909 -0.500000 -0.500000
v 0.455909 -0.500000 0.500000
v 0.500000 0.423077 0.500000
v 0.455909 0.423077 0.500000
v -0.455909 0.423077 0.500000
v -0.500000 0.423077 0.500000
v -0.500000 0.423077 -0.500000
v -0.455909 0.423077 -0.500000
v 0.455909 0.423077 -0.500000
v 0.500000 0.423077 -0.500000
v -0.249975 0.423077 0.500000
v -0.249975 -0.500000 0.500000
v -0.249975 -0.500000 -0.500000
v -0.249975 0.423077 -0.500000
v 0.249975 0.423077 0.500000
v 0.249975 -0.500000 0.500000
v 0.249975 -0.500000 -0.500000
v 0.249975 0.423077 -0.500000
vt 0.362244 0.415294
vt 0.362244 0.051657
vt 0.279351 0.051657
vt 0.279351 0.415294
vt 0.014640 0.415294
vt 0.014640 0.051657
vt 0.030673 0.051657
vt 0.030673 0.415294
vt 0.378277 0.051657
vt 0.378277 0.415294
vt 0.362244 0.415294
vt 0.362244 0.051657
vt 0.378277 0.415294
vt 0.378277 0.051657
vt 0.014640 0.051657
vt 0.014640 0.415294
vt 0.030673 0.415294
vt 0.030673 0.051657
vt 0.378277 0.051657
vt 0.362244 0.051657
vt 0.746040 0.977273
vt 0.014640 0.051657
vt 0.030673 0.051657
vt 0.014640 0.415294
vt 0.030673 0.415294
vt 0.362244 0.415294
vt 0.746040 0.022727
vt 0.378277 0.415294
vt 0.113566 0.051657
vt 0.113566 0.051657
vt 0.113566 0.415294
vt 0.984676 0.022727
vt 0.279351 0.415294
vt 0.984676 0.977273
vt 0.279351 0.051657
vt 0.030131 0.022727
vt 0.113566 0.415294
vt 0.268767 0.022727
vt 0.268767 0.977273
vt 0.030131 0.977273
vn 0.000000 -1.000000 0.000000
vn 0.000000 -1.000000 0.000000
vn 0.000000 -1.000000 0.000000
vn 0.000000 -1.000000 0.000000
vn 0.000000 1.000000 0.000000
vn 0.000000 1.000000 0.000000
vn 0.000000 1.000000 0.000000
vn 0.000000 1.000000 0.000000
vn 0.000000 1.000000 0.000000
vn 0.000000 1.000000 0.000000
vn 0.000000 1.000000 0.000000
vn 0.000000 1.000000 0.000000
vn 0.000000 -1.000000 0.000000
vn 0.000000 -1.000000 0.000000
vn 0.000000 -1.000000 0.000000
vn 0.000000 -1.000000 0.000000
vn 0.000000 -1.000000 0.000000
vn 0.000000 -1.000000 0.000000
vn 0.000000 -1.000000 0.000000
vn 0.000000 -1.000000 0.000000
vn 0.000000 0.000000 1.000000
vn 0.000000 0.000000 1.000000
vn 0.000000 0.000000 1.000000
vn 0.000000 0.000000 1.000000
vn 0.000000 0.000000 1.000000
vn 0.000000 0.000000 1.000000
vn 0.000000 0.000000 1.000000
vn 0.000000 0.000000 1.000000
vn 0.000000 0.000000 1.000000
vn 0.000000 0.000000 1.000000
vn 0.000000 0.000000 1.000000
vn 0.000000 0.000000 1.000000
vn 0.000000 0.000000 1.000000
vn 0.000000 0.000000 1.000000
vn 0.000000 0.000000 1.000000
vn 0.000000 0.000000 1.000000
vn 0.000000 0.000000 1.000000
vn 0.000000 0.000000 1.000000
vn 0.000000 0.000000 1.000000
vn 0.000000 0.000000 1.000000
vn -1.000000 0.000000 0.000000
vn -1.000000 0.000000 0.000000
vn -1.000000 0.000000 0.000000
vn -1.000000 0.000000 0.000000
vn -1.000000 0.000000 0.000000
vn -1.000000 0.000000 0.000000
vn -1.000000 0.000000 0.000000
vn -1.000000 0.000000 0.000000
vn -0.000000 0.000000 -1.000000
vn -0.000000 0.000000 -1.000000
vn -0.000000 0.000000 -1.000000
vn -0.000000 0.000000 -1.000000
vn -0.000000 0.000000 -1.000000
vn -0.000000 0.000000 -1.000000
vn -0.000000 0.000000 -1.000000
vn -0.000000 0.000000 -1.000000
vn -0.000000 0.000000 -1.000000
vn -0.000000 0.000000 -1.000000
vn -0.000000 0.000000 -1.000000
vn -0.000000 0.000000 -1.000000
vn -0.000000 0.000000 -1.000000
vn -0.000000 0.000000 -1.000000
vn -0.000000 0.000000 -1.000000
vn -0.000000 0.000000 -1.000000
vn -0.000000 0.000000 -1.000000
vn -0.000000 0.000000 -1.000000
vn -0.000000 0.000000 -1.000000
vn -0.000000 0.000000 -1.000000
vn 1.000000 0.000000 -0.000000
vn 1.000000 0.000000 -0.000000
vn 1.000000 0.000000 -0.000000
vn 1.000000 0.000000 -0.000000
vn 1.000000 0.000000 -0.000000
vn 1.000000 0.000000 -0.000000
vn 1.000000 0.000000 -0.000000
vn 1.000000 0.000000 -0.000000
vn 0.000000 1.000000 0.000000
vn 0.000000 1.000000 0.000000
vn 0.000000 1.000000 0.000000
vn 0.000000 1.000000 0.000000
vn 1.000000 0.000000 -0.000000
vn 1.000000 0.000000 -0.000000
vn 1.000000 0.000000 -0.000000
vn 1.000000 0.000000 -0.000000
vn -1.000000 0.000000 0.000000
vn -1.000000 0.000000 0.000000
vn -1.000000 0.000000 0.000000
vn -1.000000 0.000000 0.000000
vn 0.000000 0.000000 1.000000
vn 0.000000 0.000000 1.000000
vn 0.000000 0.000000 1.000000
vn 0.000000 0.000000 1.000000
vn 0.000000 -1.000000 0.000000
vn 0.000000 -1.000000 0.000000
vn 0.000000 -1.000000 0.000000
vn 0.000000 -1.000000 0.000000
vn -0.000000 0.000000 -1.000000
vn -0.000000 0.000000 -1.000000
vn -0.000000 0.000000 -1.000000
vn -0.000000 0.000000 -1.000000
vn 0.000000 1.000000 0.000000
vn 0.000000 1.000000 0.000000
vn 0.000000 1.000000 0.000000
vn 0.000000 1.000000 0.000000
f 15/1/1 16/2/2 30/3/3 31/4/4
f 8/5/5 7/6/6 10/7/7 9/8/8
f 6/9/9 5/10/10 14/11/11 13/12/12
f 1/13/13 2/14/14 16/2/15 15/1/16
f 3/15/17 4/16/18 12/17/19 11/18/20
f 2/14/21 17/19/22 18/20/23 16/2/24
f 13/12/25 18/20/26 17/19/27 6/9/28
f 16/2/29 18/20/30 29/35/31 30/3/32
f 7/6/33 20/22/34 19/23/35 10/7/36
f 11/18/37 19/23/38 20/22/39 3/15/40
f 8/5/41 21/24/42 20/22/43 7/6/44
f 3/15/45 20/22/46 21/24/47 4/16/48
f 4/16/49 21/24/50 22/25/51 12/17/52
f 9/8/53 22/25/54 21/24/55 8/5/56
f 23/26/57 15/1/58 31/4/59 32/33/60
f 5/10/61 24/28/62 23/26/63 14/11/64
f 15/1/65 23/26/66 24/28/67 1/13/68
f 6/9/69 17/19/70 24/28/71 5/10/72
f 1/13/73 24/28/74 17/19/75 2/14/76
f 32/21/77 29/27/78 18/32/79 23/34/80
f 22/25/81 9/8/82 10/7/83 19/23/84
f 18/20/85 13/12/86 14/11/87 23/26/88
f 26/29/89 25/30/90 19/23/91 11/18/92
f 27/31/93 26/29/94 11/18/95 12/17/96
f 28/37/97 27/31/98 12/17/99 22/25/100
f 19/36/101 25/38/102 28/39/103 22/40/104
f 26/29/89 30/3/32 29/35/31 25/30/90
f 31/4/4 30/3/3 26/29/94 27/31/93
f 32/33/60 31/4/59 27/31/98 28/37/97
f 25/38/102 29/27/78 32/21/77 28/39/103
