# This file uses centimeters as units for non-parametric coordinates.

v 0.500093 0.500000 -0.455909
v -0.455909 0.500000 0.500000
v 0.500093 0.500000 0.455909
v 0.455909 0.500000 0.500000
v 0.499999 0.500000 -0.500000
v -0.500093 0.500000 0.500000
v -0.500075 0.423077 0.500000
v -0.455909 0.423077 0.500000
v 0.500093 0.423077 -0.455909
v 0.499999 0.423077 -0.500000
v 0.500093 0.423077 0.455909
v 0.455909 0.423077 0.500000
v 0.500093 0.423077 0.500000
v 0.500093 0.500000 0.500000
v -0.499907 0.500000 -0.500000
v -0.499907 0.423077 -0.500000
v -0.500075 -0.500000 0.500000
v 0.499999 -0.499999 -0.500000
v 0.500093 -0.500000 0.500000
v -0.499907 -0.499999 -0.500000
v 0.455909 0.423077 0.495587
v 0.456249 0.423077 0.490408
v 0.457261 0.423077 0.485317
v 0.458930 0.423077 0.480403
v 0.461225 0.423077 0.475748
v 0.464109 0.423077 0.471432
v 0.467531 0.423077 0.467530
v 0.471433 0.423077 0.464108
v 0.475748 0.423077 0.461225
v 0.480403 0.423077 0.458929
v 0.485318 0.423077 0.457261
v 0.490408 0.423077 0.456248
v 0.495587 0.423077 0.455909
v 0.495587 0.500000 0.455909
v 0.490408 0.500000 0.456248
v 0.485318 0.500000 0.457261
v 0.480403 0.500000 0.458929
v 0.475748 0.500000 0.461225
v 0.471433 0.500000 0.464108
v 0.467531 0.500000 0.467530
v 0.464109 0.500000 0.471432
v 0.461225 0.500000 0.475748
v 0.458930 0.500000 0.480403
v 0.457261 0.500000 0.485317
v 0.456249 0.500000 0.490408
v 0.455909 0.500000 0.495587
v -0.250000 0.423077 0.500000
v 0.500093 0.423077 -0.250000
v 0.250000 0.423077 0.500000
v 0.500093 0.423077 0.250000
v -0.250000 0.423077 0.274948
v -0.245509 0.423077 0.206428
v -0.232113 0.423077 0.139081
v -0.210041 0.423077 0.074059
v -0.179670 0.423077 0.012474
v -0.141521 0.423077 -0.044620
v -0.096246 0.423077 -0.096246
v -0.044620 0.423077 -0.141521
v 0.012474 0.423077 -0.179670
v 0.074059 0.423077 -0.210041
v 0.139081 0.423077 -0.232113
v 0.206428 0.423077 -0.245509
v 0.274947 0.423077 -0.250000
v 0.250000 0.423077 0.474978
v 0.251925 0.423077 0.445612
v 0.257666 0.423077 0.416749
v 0.267125 0.423077 0.388882
v 0.280141 0.423077 0.362489
v 0.296491 0.423077 0.338020
v 0.315894 0.423077 0.315894
v 0.338020 0.423077 0.296491
v 0.362489 0.423077 0.280141
v 0.388882 0.423077 0.267125
v 0.416749 0.423077 0.257666
v 0.445612 0.423077 0.251925
v 0.474977 0.423077 0.250000
v 0.213161 0.423077 -0.455910
v 0.125830 0.423077 -0.450186
v 0.039993 0.423077 -0.433112
v -0.042881 0.423077 -0.404980
v -0.121374 0.423077 -0.366271
v -0.194143 0.423077 -0.317649
v -0.259943 0.423077 -0.259944
v -0.317648 0.423077 -0.194144
v -0.366271 0.423077 -0.121375
v -0.404979 0.423077 -0.042882
v -0.433111 0.423077 0.039992
v -0.450185 0.423077 0.125829
v -0.455909 0.423077 0.213160
v -0.455909 0.500000 0.213160
v -0.450185 0.500000 0.125829
v -0.433111 0.500000 0.039992
v -0.404979 0.500000 -0.042882
v -0.366271 0.500000 -0.121375
v -0.317648 0.500000 -0.194144
v -0.259943 0.500000 -0.259944
v -0.194143 0.500000 -0.317649
v -0.121374 0.500000 -0.366271
v -0.042881 0.500000 -0.404980
v 0.039993 0.500000 -0.433112
v 0.125830 0.500000 -0.450186
v 0.213161 0.500000 -0.455910
v 0.500093 0.423077 0.000000
v 0.374962 0.423077 0.000000
v 0.326020 0.423077 0.003208
v 0.277915 0.423077 0.012777
v 0.231471 0.423077 0.028542
v 0.187481 0.423077 0.050236
v 0.146700 0.423077 0.077485
v 0.109824 0.423077 0.109824
v 0.077485 0.423077 0.146700
v 0.050236 0.423077 0.187481
v 0.028542 0.423077 0.231471
v 0.012776 0.423077 0.277915
v 0.003208 0.423077 0.326020
v 0.000000 0.423077 0.374963
v 0.000000 0.423077 0.500000
vt 1.000000 0.000000
vt 1.000000 1.000000
vt 0.000000 0.000000
vt 0.000000 1.000000
vt 0.500000 1.000000
vt 0.250000 0.000000
vt 0.500000 0.000000
vt 0.492767 0.983085
vt 0.500000 0.000000
vt 1.000000 1.000000
vt 0.000000 1.000000
vt 0.000000 0.000000
vt 1.000000 0.000000
vt 1.000000 1.000000
vt 1.000000 0.000000
vt 0.052677 0.037517
vt 1.000000 0.250000
vt 0.000000 0.000000
vt 0.000000 0.500000
vt 1.000000 0.000000
vt 1.000000 0.000000
vt 1.000409 0.970969
vt 0.000000 0.000000
vt 0.000000 1.000000
vt 0.000000 0.000000
vt 0.000000 1.000000
vt 1.000000 0.000000
vt 1.000000 1.000000
vt 1.000964 0.008381
vt 0.000000 0.000000
vt 0.000000 0.000000
vt 1.000000 0.000000
vt 1.000000 1.000000
vt 0.000000 1.000000
vt 0.000000 1.000000
vt 1.000000 1.000000
vt 1.000000 1.000000
vt 0.000000 1.000000
vt 0.000000 1.000000
vt 1.000000 1.000000
vt 1.000000 0.000000
vt 0.000000 0.061982
vt 0.000000 0.134877
vt 0.000000 0.207772
vt 0.000000 0.280668
vt 0.000000 0.353563
vt 0.000000 0.426459
vt 0.000000 0.499354
vt 0.000000 0.572250
vt 0.000000 0.645144
vt 0.000000 0.718039
vt 0.000000 0.790935
vt 0.000000 0.863831
vt 0.000000 0.936725
vt 1.000000 0.936725
vt 1.000000 0.863831
vt 1.000000 0.790935
vt 1.000000 0.718039
vt 1.000000 0.645144
vt 1.000000 0.572250
vt 1.000000 0.499354
vt 1.000000 0.426459
vt 1.000000 0.353563
vt 1.000000 0.280668
vt 1.000000 0.207772
vt 1.000000 0.134877
vt 1.000000 0.061982
vt 0.250000 0.500000
vt 0.875000 0.750000
vt 0.250000 0.000000
vt 0.625000 0.250000
vt 1.000000 0.000000
vt 5.845594 1.004429
vt 0.000000 0.000000
vt -4.835909 1.004417
vt 0.000000 0.000000
vt 1.000000 0.000000
vt 3.675503 1.034172
vt 2.685283 1.031544
vt 0.000000 0.000000
vt 1.000000 0.000000
vt 2.869153 1.073437
vt 2.058818 1.073345
vt 0.000000 0.000000
vt 1.000000 0.000000
vt 2.472641 1.110585
vt 1.664516 1.110488
vt 0.000000 0.000000
vt 1.000000 0.000000
vt 2.049728 1.139016
vt 1.242859 1.138915
vt 0.000000 0.000000
vt 1.000000 0.000000
vt 1.607549 1.158245
vt 0.798609 1.158149
vt 0.000000 0.000000
vt 1.000000 0.000000
vt 1.153665 1.167942
vt 0.331061 1.167879
vt 0.000000 0.000000
vt 1.000000 0.000000
vt 0.668945 1.167878
vt -0.153653 1.167942
vt 0.000000 0.000000
vt 1.000000 0.000000
vt 0.201391 1.158149
vt -0.607543 1.158244
vt 0.000000 0.000000
vt 1.000000 0.000000
vt -0.242869 1.138915
vt -1.049734 1.139015
vt 0.000000 0.000000
vt 1.000000 0.000000
vt -0.664539 1.110487
vt -1.472679 1.110584
vt 0.000000 0.000000
vt 1.000000 0.000000
vt -1.058803 1.073346
vt -1.869135 1.073438
vt 0.000000 0.000000
vt 1.000000 0.000000
vt -1.685254 1.031543
vt -2.675457 1.034172
vt 0.000000 1.000000
vt 1.000000 1.000000
vt 0.823317 -0.000000
vt 0.769426 -0.000000
vt 0.715535 -0.000000
vt 0.661644 -0.000000
vt 0.607754 -0.000000
vt 0.553863 -0.000000
vt 0.499972 -0.000000
vt 0.446081 -0.000000
vt 0.392190 -0.000000
vt 0.338299 -0.000000
vt 0.284408 -0.000000
vt 0.230517 0.000000
vt 0.176626 -0.000000
vt 0.176626 1.000000
vt 0.230517 1.000000
vt 0.284408 1.000000
vt 0.338299 1.000000
vt 0.392190 1.000000
vt 0.446081 1.000000
vt 0.499972 1.000000
vt 0.553863 1.000000
vt 0.607754 1.000000
vt 0.661644 1.000000
vt 0.715535 1.000000
vt 0.769426 1.000000
vt 0.823317 1.000000
vt 0.750000 0.500000
vt -0.342627 0.515772
vt -2.417955 0.502209
vt -0.029401 0.536673
vt -1.337729 0.517086
vt 0.167731 0.555244
vt -0.934568 0.536719
vt 0.378566 0.569458
vt -0.736340 0.555292
vt 0.600696 0.579074
vt -0.524867 0.569508
vt 0.834472 0.583939
vt -0.303771 0.579122
vt 1.076833 0.583971
vt -0.076827 0.583971
vt 1.303775 0.579122
vt 0.165530 0.583939
vt 1.524864 0.569508
vt 0.399305 0.579074
vt 1.736320 0.555292
vt 0.621430 0.569458
vt 1.934576 0.536718
vt 0.832258 0.555244
vt 2.337752 0.517086
vt 1.029409 0.536672
vt 3.422797 0.502214
vt 1.342642 0.515772
vt 0.250000 0.250000
vn 0.000000 0.000000 1.000000
vn 0.000000 0.000000 1.000000
vn 0.000000 0.000000 1.000000
vn 0.000000 0.000000 1.000000
vn 0.999998 0.000000 -0.002126
vn 0.999998 0.000000 -0.002126
vn 0.999998 0.000000 -0.002126
vn 0.999998 0.000000 -0.002126
vn 0.000000 0.000000 1.000000
vn 0.000000 0.000000 1.000000
vn 0.000000 0.000000 1.000000
vn 0.000000 0.000000 1.000000
vn 1.000000 0.000000 -0.000000
vn 1.000000 0.000000 -0.000000
vn 1.000000 0.000000 -0.000000
vn 1.000000 0.000000 -0.000000
vn 1.000000 -0.000048 -0.000093
vn 1.000000 -0.000048 -0.000093
vn 1.000000 -0.000048 -0.000093
vn 1.000000 -0.000048 -0.000093
vn 1.000000 -0.000048 -0.000093
vn 1.000000 -0.000048 -0.000093
vn 1.000000 -0.000048 -0.000093
vn 1.000000 -0.000048 -0.000093
vn 1.000000 -0.000048 -0.000093
vn 0.000000 0.000000 1.000000
vn 0.000000 0.000000 1.000000
vn 0.000000 0.000000 1.000000
vn 0.000000 0.000000 1.000000
vn 0.000000 0.000000 1.000000
vn 0.000000 0.000000 1.000000
vn 0.000000 0.000000 1.000000
vn 0.000000 0.000000 1.000000
vn 0.000000 0.000000 1.000000
vn -1.000000 -0.000112 -0.000176
vn -1.000000 -0.000112 -0.000176
vn -1.000000 -0.000112 -0.000176
vn -1.000000 -0.000112 -0.000176
vn -0.000000 0.000000 -1.000000
vn -0.000000 0.000000 -1.000000
vn -0.000000 0.000000 -1.000000
vn -0.000000 0.000000 -1.000000
vn -1.000000 0.000000 -0.000167
vn -1.000000 0.000000 -0.000167
vn -1.000000 0.000000 -0.000167
vn -1.000000 0.000000 -0.000167
vn -0.000000 0.000000 -1.000000
vn -0.000000 0.000000 -1.000000
vn -0.000000 0.000000 -1.000000
vn -0.000000 0.000000 -1.000000
vn -0.035030 0.000000 -0.999386
vn -0.035030 0.000000 -0.999386
vn -0.000000 0.000000 -1.000000
vn -0.000000 0.000000 -1.000000
vn -1.000000 0.000000 0.000000
vn -0.999374 0.000000 -0.035380
vn -0.999374 0.000000 -0.035380
vn -1.000000 0.000000 0.000000
vn -0.000000 -1.000000 -0.000000
vn -0.000000 -1.000000 -0.000000
vn -0.000000 -1.000000 -0.000000
vn -0.000000 -1.000000 -0.000000
vn -0.130528 0.000000 -0.991445
vn -0.130528 0.000000 -0.991445
vn -0.258815 0.000000 -0.965927
vn -0.258815 0.000000 -0.965927
vn -0.382683 0.000000 -0.923880
vn -0.382683 0.000000 -0.923880
vn -0.500008 0.000000 -0.866021
vn -0.500008 0.000000 -0.866021
vn -0.608764 0.000000 -0.793351
vn -0.608764 0.000000 -0.793351
vn -0.707102 0.000000 -0.707112
vn -0.707102 0.000000 -0.707112
vn -0.793341 0.000000 -0.608777
vn -0.793341 0.000000 -0.608777
vn -0.866019 0.000000 -0.500011
vn -0.866019 0.000000 -0.500011
vn -0.923889 0.000000 -0.382661
vn -0.923889 0.000000 -0.382661
vn -0.965932 0.000000 -0.258797
vn -0.965932 0.000000 -0.258797
vn -0.991443 0.000000 -0.130540
vn -0.991443 0.000000 -0.130540
vn -0.000002 1.000000 0.000000
vn -0.000002 1.000000 0.000000
vn -0.000002 1.000000 0.000000
vn -0.000002 1.000000 0.000000
vn -0.000002 1.000000 0.000000
vn -0.000002 1.000000 0.000000
vn -0.000002 1.000000 0.000000
vn -0.000002 1.000000 0.000000
vn -0.000002 1.000000 0.000000
vn -0.000002 1.000000 0.000000
vn -0.000002 1.000000 0.000000
vn -0.000002 1.000000 0.000000
vn -0.000002 1.000000 0.000000
vn -0.000002 1.000000 0.000000
vn -0.000002 1.000000 0.000000
vn -0.000002 1.000000 0.000000
vn 0.000000 1.000000 -0.000000
vn 0.000000 1.000000 -0.000000
vn -0.000000 1.000000 -0.000000
vn 0.000000 1.000000 -0.000000
vn -0.000000 1.000000 0.000000
vn -0.000000 1.000000 0.000000
vn -0.000000 1.000000 0.000000
vn -0.000000 1.000000 0.000000
vn -0.000000 1.000000 0.000000
vn -0.000000 1.000000 0.000000
vn 0.000000 1.000000 -0.000000
vn 0.000000 1.000000 -0.000000
vn 0.000000 1.000000 -0.000000
vn -0.000000 1.000000 0.000000
vn -0.000000 1.000000 0.000000
vn 0.000000 1.000000 -0.000000
vn 0.000000 1.000000 -0.000000
vn 0.000000 1.000000 -0.000000
vn 0.000000 1.000000 -0.000000
vn 0.000000 1.000000 -0.000000
vn 0.000000 1.000000 -0.000000
vn 0.000000 1.000000 0.000000
vn -0.000000 1.000000 0.000000
vn 0.000000 1.000000 -0.000000
vn -0.000000 1.000000 0.000000
vn 0.000000 1.000000 -0.000000
vn 0.000000 1.000000 -0.000000
vn 0.000000 1.000000 0.000000
vn -0.000000 1.000000 0.000000
vn 0.000000 1.000000 0.000000
vn 0.999883 0.000000 0.015297
vn 0.999883 0.000000 0.015297
vn 1.000000 0.000000 -0.000000
vn 1.000000 0.000000 -0.000000
vn -0.000000 0.000000 1.000000
vn 0.015292 0.000000 0.999883
vn 0.015292 0.000000 0.999883
vn -0.000000 0.000000 1.000000
vn 0.000000 1.000000 -0.000000
vn 0.000000 1.000000 -0.000000
vn -0.000000 1.000000 0.000000
vn 0.000000 1.000000 0.000000
vn 0.000000 1.000000 0.000000
vn 0.000000 1.000000 0.000000
vn -0.000000 1.000000 0.000000
vn 0.000001 1.000000 -0.000000
vn -0.000000 1.000000 0.000000
vn -0.000002 1.000000 0.000000
vn 0.000000 1.000000 -0.000000
vn -0.000000 1.000000 0.000000
vn 0.000000 1.000000 -0.000000
vn 0.000001 1.000000 -0.000000
vn 0.000000 1.000000 0.000000
vn 0.991445 0.000000 0.130528
vn 0.991445 0.000000 0.130528
vn 0.965926 0.000000 0.258818
vn 0.965926 0.000000 0.258818
vn 0.923880 0.000000 0.382683
vn 0.923880 0.000000 0.382683
vn 0.866025 0.000000 0.500000
vn 0.866025 0.000000 0.500000
vn 0.793353 0.000000 0.608761
vn 0.793353 0.000000 0.608761
vn 0.707107 0.000000 0.707107
vn 0.707107 0.000000 0.707107
vn 0.608761 0.000000 0.793354
vn 0.608761 0.000000 0.793354
vn 0.499999 0.000000 0.866026
vn 0.499999 0.000000 0.866026
vn 0.382683 0.000000 0.923880
vn 0.382683 0.000000 0.923880
vn 0.258818 0.000000 0.965926
vn 0.258818 0.000000 0.965926
vn 0.130526 0.000000 0.991445
vn 0.130526 0.000000 0.991445
vn -0.000000 1.000000 -0.000000
vn -0.000000 1.000000 -0.000000
vn -0.000000 1.000000 -0.000000
vn -0.000000 1.000000 -0.000000
vn -0.000000 1.000000 0.000000
vn -0.000000 1.000000 0.000000
vn 0.000000 1.000000 -0.000000
vn 0.000000 1.000000 -0.000000
vn 0.000000 1.000000 -0.000000
vn -0.000000 1.000000 0.000000
vn -0.000000 1.000000 0.000000
vn -0.000000 1.000000 0.000000
vn 0.000000 1.000000 -0.000000
vn 0.000000 1.000000 -0.000000
vn 0.000000 1.000000 -0.000000
vn -0.000000 1.000000 0.000000
vn -0.000000 1.000000 0.000000
vn -0.000000 1.000000 0.000000
vn 0.000000 1.000000 -0.000000
vn 0.000000 1.000000 0.000000
vn -0.000000 1.000000 0.000000
vn -0.000000 1.000000 0.000000
vn -0.000000 1.000000 0.000000
vn -0.000000 1.000000 0.000000
vn 0.000000 1.000000 -0.000000
vn 0.000000 1.000000 -0.000000
vn -0.000000 1.000000 -0.000000
vn 0.000000 1.000000 -0.000000
vn -0.000000 1.000000 -0.000000
vn -0.000000 1.000000 -0.000000
vn 0.000000 1.000000 0.000000
vn -0.000000 1.000000 0.000000
vn 0.000000 1.000000 -0.000000
vn -0.000009 1.000000 0.000000
vn 0.000001 1.000000 -0.000000
vn 0.000003 1.000000 -0.000000
vn 0.000000 1.000000 0.000000
vn 0.000000 1.000000 -0.000000
vn 0.000001 1.000000 -0.000000
vn 0.000000 1.000000 0.000000
vn 0.000000 1.000000 -0.000000
vn 0.000000 1.000000 -0.000000
vn -0.000000 1.000000 0.000000
vn -0.000000 1.000000 0.000000
vn 0.000000 1.000000 0.000000
vn 0.000000 1.000000 0.000000
vn 0.000000 1.000000 -0.000000
vn 0.000000 1.000000 -0.000000
f 7/5/1 8/6/2 2/1/3 6/2/4
f 5/4/5 1/3/6 9/7/7 10/8/8
f 4/41/9 12/9/10 13/11/11 14/10/12
f 14/13/13 13/12/14 11/19/15 3/14/16
f 19/36/17 18/34/18 10/16/19 9/17/20 48/69/21 103/152/22 50/71/23 11/19/24 13/20/25
f 19/35/26 13/18/27 12/9/28 49/70/29 117/179/30 47/68/31 8/6/32 7/15/33 17/33/34
f 7/24/35 6/23/36 15/27/37 16/28/38
f 16/26/39 15/25/40 5/21/41 10/22/42
f 20/40/43 17/38/44 7/30/45 16/32/46
f 18/37/47 20/39/48 16/31/49 10/29/50
f 33/54/51 34/55/52 3/14/53 11/19/54
f 4/41/55 46/67/56 21/42/57 12/9/58
f 17/38/59 20/39/60 18/34/61 19/35/62
f 33/54/51 32/53/63 35/56/64 34/55/52
f 32/53/63 31/52/65 36/57/66 35/56/64
f 31/52/65 30/51/67 37/58/68 36/57/66
f 30/51/67 29/50/69 38/59/70 37/58/68
f 29/50/69 28/49/71 39/60/72 38/59/70
f 28/49/71 27/48/73 40/61/74 39/60/72
f 27/48/73 26/47/75 41/62/76 40/61/74
f 26/47/75 25/46/77 42/63/78 41/62/76
f 25/46/77 24/45/79 43/64/80 42/63/78
f 24/45/79 23/44/81 44/65/82 43/64/80
f 23/44/81 22/43/83 45/66/84 44/65/82
f 22/43/83 21/42/57 46/67/56 45/66/84
f 14/13/85 3/14/86 34/55/87 35/56/88 36/57/89 37/58/90 38/59/91 39/60/92 40/61/93 41/62/94 42/63/95 43/64/96 44/65/97 45/66/98 46/67/99 4/41/100
f 49/70/101 64/72/102 116/177/103 117/179/104
f 76/74/105 50/71/106 103/152/107 104/154/108
f 64/76/102 65/77/109 115/175/110 116/178/103
f 65/80/109 66/81/111 114/173/112 115/176/110
f 66/84/111 67/85/113 113/171/114 114/174/112
f 67/88/113 68/89/115 112/169/116 113/172/114
f 68/92/115 69/93/117 111/167/118 112/170/116
f 69/96/117 70/97/119 110/165/120 111/168/118
f 70/100/119 71/101/121 109/163/122 110/166/120
f 71/104/121 72/105/123 108/161/124 109/164/122
f 72/108/123 73/109/125 107/159/126 108/162/124
f 73/112/125 74/113/127 106/157/128 107/160/126
f 74/116/127 75/117/129 105/155/130 106/158/128
f 75/120/129 76/121/105 104/153/108 105/156/130
f 89/138/131 90/139/132 2/124/133 8/6/134
f 1/125/135 102/151/136 77/126/137 9/17/138
f 12/9/139 21/42/140 64/72/102 49/70/101
f 21/42/140 22/43/141 65/77/109 64/76/102
f 22/43/141 23/44/142 66/81/111 65/80/109
f 23/44/142 24/45/143 67/85/113 66/84/111
f 24/45/143 25/46/144 68/89/115 67/88/113
f 25/46/144 26/47/145 69/93/117 68/92/115
f 26/47/145 27/48/146 70/97/119 69/96/117
f 27/48/146 28/49/147 71/101/121 70/100/119
f 28/49/147 29/50/148 72/105/123 71/104/121
f 29/50/148 30/51/149 73/109/125 72/108/123
f 30/51/149 31/52/150 74/113/127 73/112/125
f 31/52/150 32/53/151 75/117/129 74/116/127
f 32/53/151 33/54/152 76/121/105 75/120/129
f 33/54/152 11/19/153 50/71/106 76/74/105
f 89/138/131 88/137/154 91/140/155 90/139/132
f 88/137/154 87/136/156 92/141/157 91/140/155
f 87/136/156 86/135/158 93/142/159 92/141/157
f 86/135/158 85/134/160 94/143/161 93/142/159
f 85/134/160 84/133/162 95/144/163 94/143/161
f 84/133/162 83/132/164 96/145/165 95/144/163
f 83/132/164 82/131/166 97/146/167 96/145/165
f 82/131/166 81/130/168 98/147/169 97/146/167
f 81/130/168 80/129/170 99/148/171 98/147/169
f 80/129/170 79/128/172 100/149/173 99/148/171
f 79/128/172 78/127/174 101/150/175 100/149/173
f 78/127/174 77/126/137 102/151/136 101/150/175
f 47/68/176 51/73/177 89/138/178 8/6/179
f 51/79/177 52/78/180 88/137/181 89/138/178
f 52/83/180 53/82/182 87/136/183 88/137/181
f 53/87/182 54/86/184 86/135/185 87/136/183
f 54/91/184 55/90/186 85/134/187 86/135/185
f 55/95/186 56/94/188 84/133/189 85/134/187
f 56/99/188 57/98/190 83/132/191 84/133/189
f 57/103/190 58/102/192 82/131/193 83/132/191
f 58/107/192 59/106/194 81/130/195 82/131/193
f 59/111/194 60/110/196 80/129/197 81/130/195
f 60/115/196 61/114/198 79/128/199 80/129/197
f 61/119/198 62/118/200 78/127/201 79/128/199
f 62/123/200 63/122/202 77/126/203 78/127/201
f 63/75/202 48/69/204 9/17/205 77/126/203
f 104/154/108 103/152/107 48/69/204 63/75/202
f 105/156/130 104/153/108 63/122/202 62/123/200
f 106/158/128 105/155/130 62/118/200 61/119/198
f 107/160/126 106/157/128 61/114/198 60/115/196
f 108/162/124 107/159/126 60/110/196 59/111/194
f 109/164/122 108/161/124 59/106/194 58/107/192
f 110/166/120 109/163/122 58/102/192 57/103/190
f 111/168/118 110/165/120 57/98/190 56/99/188
f 112/170/116 111/167/118 56/94/188 55/95/186
f 113/172/114 112/169/116 55/90/186 54/91/184
f 114/174/112 113/171/114 54/86/184 53/87/182
f 115/176/110 114/173/112 53/82/182 52/83/180
f 116/178/103 115/175/110 52/78/180 51/79/177
f 117/179/104 116/177/103 51/73/177 47/68/176
f 6/2/206 2/124/207 15/27/208
f 2/124/207 90/139/209 15/27/208
f 90/139/209 91/140/210 15/27/208
f 91/140/210 92/141/211 15/27/208
f 92/141/211 93/142/212 15/27/208
f 93/142/212 94/143/213 15/27/208
f 94/143/213 95/144/214 15/27/208
f 95/144/214 96/145/215 15/27/208
f 1/3/216 5/21/217 102/151/218
f 5/21/217 15/27/208 102/151/218
f 102/151/218 15/27/208 101/150/219
f 101/150/219 15/27/208 100/149/220
f 100/149/220 15/27/208 99/148/221
f 99/148/221 15/27/208 98/147/222
f 98/147/222 15/27/208 97/146/223
f 15/27/208 96/145/215 97/146/223
