# File exported by Houdini 15.5.717 (www.sidefx.com)
# 96 points
# 144 vertices
# 48 primitives
# Bounds: [-0.5, -0.5, -0.5] to [0.5, 1.06465602, 0.5]
g 
v -0.5 -0.5 0.5
v 0.5 -0.5 0.5
v -0.5 0.5 0.5
v 0.5 0.5 0.5
v -0.5 0.5 -0.5
v 0.5 0.5 -0.5
v -0.5 -0.5 -0.5
v 0.5 -0.5 -0.5
v -0.31497699 0.5 0.242302001
v 0.31497699 0.5 0.242302001
v -0.31497699 0.984605014 0.242302001
v 0.31497699 0.984605014 0.242302001
v -0.31497699 0.984605014 -0.242302001
v 0.31497699 0.984605014 -0.242302001
v -0.31497699 0.5 -0.242302001
v 0.31497699 0.5 -0.242302001
v -0.281443 1.06465602 0.216506004
v 0.281443 1.06465602 0.216506004
v 0.281443 1.06465602 -0.216506004
v -0.281443 1.06465602 -0.216506004
v -0.378690988 0.984605014 0.291316003
v 0.378690988 0.984605014 0.291316003
v 0.338373989 1.04106104 0.260300994
v -0.338373989 1.04106104 0.260300994
v 0.378690988 0.984605014 -0.291316003
v 0.338373989 1.04106104 -0.260300994
v -0.378690988 0.984605014 -0.291316003
v -0.338373989 1.04106104 -0.260300994
v -0.338373989 1.04106104 -0.260300994
v -0.338373989 1.04106104 -0.260300994
v -0.338373989 1.04106104 -0.260300994
v -0.378690988 0.984605014 -0.291316003
v -0.378690988 0.984605014 -0.291316003
v -0.378690988 0.984605014 -0.291316003
v 0.338373989 1.04106104 -0.260300994
v 0.338373989 1.04106104 -0.260300994
v 0.338373989 1.04106104 -0.260300994
v 0.378690988 0.984605014 -0.291316003
v 0.378690988 0.984605014 -0.291316003
v 0.378690988 0.984605014 -0.291316003
v -0.338373989 1.04106104 0.260300994
v -0.338373989 1.04106104 0.260300994
v -0.338373989 1.04106104 0.260300994
v 0.338373989 1.04106104 0.260300994
v 0.338373989 1.04106104 0.260300994
v 0.338373989 1.04106104 0.260300994
v 0.378690988 0.984605014 0.291316003
v 0.378690988 0.984605014 0.291316003
v 0.378690988 0.984605014 0.291316003
v -0.378690988 0.984605014 0.291316003
v -0.378690988 0.984605014 0.291316003
v -0.378690988 0.984605014 0.291316003
v -0.281443 1.06465602 -0.216506004
v -0.281443 1.06465602 -0.216506004
v 0.281443 1.06465602 -0.216506004
v 0.281443 1.06465602 -0.216506004
v 0.281443 1.06465602 0.216506004
v 0.281443 1.06465602 0.216506004
v -0.281443 1.06465602 0.216506004
v -0.281443 1.06465602 0.216506004
v 0.31497699 0.5 -0.242302001
v 0.31497699 0.5 -0.242302001
v -0.31497699 0.5 -0.242302001
v -0.31497699 0.5 -0.242302001
v 0.31497699 0.984605014 -0.242302001
v 0.31497699 0.984605014 -0.242302001
v 0.31497699 0.984605014 -0.242302001
v -0.31497699 0.984605014 -0.242302001
v -0.31497699 0.984605014 -0.242302001
v -0.31497699 0.984605014 -0.242302001
v 0.31497699 0.984605014 0.242302001
v 0.31497699 0.984605014 0.242302001
v 0.31497699 0.984605014 0.242302001
v -0.31497699 0.984605014 0.242302001
v -0.31497699 0.984605014 0.242302001
v -0.31497699 0.984605014 0.242302001
v 0.31497699 0.5 0.242302001
v 0.31497699 0.5 0.242302001
v -0.31497699 0.5 0.242302001
v -0.31497699 0.5 0.242302001
v 0.5 -0.5 -0.5
v 0.5 -0.5 -0.5
v -0.5 -0.5 -0.5
v -0.5 -0.5 -0.5
v 0.5 0.5 -0.5
v 0.5 0.5 -0.5
v -0.5 0.5 -0.5
v -0.5 0.5 -0.5
v 0.5 0.5 0.5
v 0.5 0.5 0.5
v -0.5 0.5 0.5
v -0.5 0.5 0.5
v 0.5 -0.5 0.5
v 0.5 -0.5 0.5
v -0.5 -0.5 0.5
v -0.5 -0.5 0.5
vt 0.618857026 0.342298001 0
vt 0.618857026 0.695003986 0
vt 0.618857026 0.342298001 0
vt 0.618857026 0.342298001 0
vt 0.971562982 0.695003986 0
vt 0.971562982 0.342298001 0
vt 0.971562982 0.342298001 0
vt 0.971562982 0.695003986 0
vt 0.971562982 0.342298001 0
vt 0.971562982 0.342298001 0
vt 0.618857026 0.695003986 0
vt 0.618857026 0.342298001 0
vt 0.618857026 0.695003986 0
vt 0.971562982 0.695003986 0
vt 0.618857026 0.695003986 0
vt 0.971562982 0.342298001 0
vt 0.618857026 0.342298001 0
vt 0.971562982 0.342298001 0
vt 0.907689989 0.958931029 0
vt 0.66437602 0.771764994 0
vt 0.907691002 0.77176398 0
vt 0.452217013 0.188630998 0
vt 0.127057001 0.524881005 0
vt 0.116214 0.188630998 0
vt 0.233912006 0.771776974 0
vt 0.477216005 0.958940983 0
vt 0.233906999 0.958944976 0
vt 0.880671024 0.407555997 0
vt 0.709748983 0.629745007 0
vt 0.709748983 0.407555997 0
vt 0.664385021 0.958936989 0
vt 0.477209002 0.771772981 0
vt 0.66437602 0.771764994 0
vt 0.233906999 0.958944976 0
vt 0.0467390008 0.771785975 0
vt 0.233912006 0.771776974 0
vt 0.525123 0.120667003 0
vt 0.474860996 0.560139 0
vt 0.486936003 0.153374001 0
vt 0.511925995 0.592845023 0
vt 0.0935700014 0.560139 0
vt 0.474860996 0.560139 0
vt 0.056504 0.592845023 0
vt 0.0814950019 0.153372005 0
vt 0.0935700014 0.560139 0
vt 0.043308001 0.120665997 0
vt 0.486936003 0.153374001 0
vt 0.0814950019 0.153372005 0
vt 0.561253011 0.161087006 0
vt 0.511925995 0.592845023 0
vt 0.525123 0.120667003 0
vt 0.441374004 0.524881005 0
vt 0.486936003 0.153374001 0
vt 0.474860996 0.560139 0
vt 0.473614007 0.633708 0
vt 0.056504 0.592845023 0
vt 0.511925995 0.592845023 0
vt 0.127057001 0.524881005 0
vt 0.474860996 0.560139 0
vt 0.0935700014 0.560139 0
vt 0.0181510001 0.553825021 0
vt 0.043308001 0.120665997 0
vt 0.056504 0.592845023 0
vt 0.116214 0.188630998 0
vt 0.0935700014 0.560139 0
vt 0.0814950019 0.153372005 0
vt 0.0838420019 0.0774350017 0
vt 0.525123 0.120667003 0
vt 0.043308001 0.120665997 0
vt 0.452217013 0.188630998 0
vt 0.0814950019 0.153372005 0
vt 0.486936003 0.153374001 0
vt 0.0814950019 0.153372005 0
vt 0.452217013 0.188630998 0
vt 0.116214 0.188630998 0
vt 0.525123 0.120667003 0
vt 0.0838420019 0.0774350017 0
vt 0.48458901 0.0774350017 0
vt 0.0935700014 0.560139 0
vt 0.116214 0.188630998 0
vt 0.127057001 0.524881005 0
vt 0.043308001 0.120665997 0
vt 0.0181510001 0.553825021 0
vt 0.00717800017 0.161088005 0
vt 0.474860996 0.560139 0
vt 0.127057001 0.524881005 0
vt 0.441374004 0.524881005 0
vt 0.056504 0.592845023 0
vt 0.473614007 0.633708 0
vt 0.0948169976 0.633708 0
vt 0.486936003 0.153374001 0
vt 0.441374004 0.524881005 0
vt 0.452217013 0.188630998 0
vt 0.511925995 0.592845023 0
vt 0.561253011 0.161087006 0
vt 0.550279975 0.553825021 0
vt 0.486936003 0.153374001 0
vt 0.043308001 0.120665997 0
vt 0.525123 0.120667003 0
vt 0.0814950019 0.153372005 0
vt 0.056504 0.592845023 0
vt 0.043308001 0.120665997 0
vt 0.0935700014 0.560139 0
vt 0.511925995 0.592845023 0
vt 0.056504 0.592845023 0
vt 0.474860996 0.560139 0
vt 0.525123 0.120667003 0
vt 0.511925995 0.592845023 0
vt 0.0467390008 0.771785975 0
vt 0.233906999 0.958944976 0
vt 0.0467489995 0.95895201 0
vt 0.477209002 0.771772981 0
vt 0.664385021 0.958936989 0
vt 0.477216005 0.958940983 0
vt 0.709748983 0.629745007 0
vt 0.880671024 0.407555997 0
vt 0.880671024 0.629745007 0
vt 0.477216005 0.958940983 0
vt 0.233912006 0.771776974 0
vt 0.477209002 0.771772981 0
vt 0.127057001 0.524881005 0
vt 0.452217013 0.188630998 0
vt 0.441374004 0.524881005 0
vt 0.66437602 0.771764994 0
vt 0.907689989 0.958931029 0
vt 0.664385021 0.958936989 0
vt 0.618857026 0.342298001 0
vt 0.971562982 0.342298001 0
vt 0.618857026 0.342298001 0
vt 0.971562982 0.695003986 0
vt 0.618857026 0.695003986 0
vt 0.971562982 0.695003986 0
vt 0.618857026 0.695003986 0
vt 0.971562982 0.342298001 0
vt 0.971562982 0.695003986 0
vt 0.971562982 0.695003986 0
vt 0.971562982 0.342298001 0
vt 0.971562982 0.695003986 0
vt 0.971562982 0.695003986 0
vt 0.618857026 0.342298001 0
vt 0.618857026 0.695003986 0
vt 0.618857026 0.695003986 0
vt 0.618857026 0.342298001 0
vt 0.618857026 0.695003986 0
vn 0 0 1
vn 0 0 1
vn 0 0 1
vn 0 0 1
vn 0 1 0
vn 0 1 0
vn 0 0 -1
vn 0 0 -1
vn 0 0 1
vn 0 0 1
vn 0 0 1
vn 0 0 1
vn 0 0 -1
vn 0 0 -1
vn 0 0 -1
vn 0 0 -1
vn 0 1 0
vn 0 1 0
vn 0 1 0
vn 0 1 0
vn 0 0.481492311 0.87645036
vn 0 0.481492311 0.87645036
vn 0 0.481492311 0.87645036
vn 0 0.481492311 0.87645036
vn 0.813793182 0.581154704 0
vn 0.813793182 0.581154704 0
vn 0 0.481492311 -0.87645036
vn 0 0.481492311 -0.87645036
vn -0.813793182 0.581154704 0
vn 0 0.880361855 -0.47430262
vn -0.382868946 0.923802733 0
vn -0.813793182 0.581154704 0
vn 0 -1 -1.53396797e-06
vn 0 -1 0
vn 0 0.481492311 -0.87645036
vn 0.382868946 0.923802733 0
vn 0 0.880361855 -0.47430262
vn 0 0.481492311 -0.87645036
vn 0 -1 0
vn 0 -1 -1.53396797e-06
vn -0.813793182 0.581154704 0
vn 0 0.880361855 0.47430262
vn -0.382868946 0.923802733 0
vn 0.813793182 0.581154704 0
vn 0 0.880361855 0.47430262
vn 0.382868946 0.923802733 0
vn 0.813793182 0.581154704 0
vn 0 -1 1.53396797e-06
vn 0 -1 0
vn -0.813793182 0.581154704 0
vn 0 -1 1.53396797e-06
vn 0 -1 0
vn 0 0.880361855 -0.47430262
vn -0.382868946 0.923802733 0
vn 0.382868946 0.923802733 0
vn 0 0.880361855 -0.47430262
vn 0 0.880361855 0.47430262
vn 0.382868946 0.923802733 0
vn 0 0.880361855 0.47430262
vn -0.382868946 0.923802733 0
vn 0 -1 0
vn 1 0 0
vn 0 -1 0
vn -1 0 0
vn 1 0 0
vn 0 -1 0
vn 0 -1 -1.53396797e-06
vn -1 0 0
vn 0 -1 -1.53396797e-06
vn 0 -1 0
vn 1 0 0
vn 0 -1 1.53396797e-06
vn 0 -1 0
vn -1 0 0
vn 0 -1 1.53396797e-06
vn 0 -1 0
vn 0 -1 0
vn 1 0 0
vn 0 -1 0
vn -1 0 0
vn 0 -1 0
vn 1 0 0
vn 0 -1 0
vn -1 0 0
vn 0 0 -1
vn 1 0 0
vn 0 0 -1
vn -1 0 0
vn 0 1 0
vn 1 0 0
vn 0 1 0
vn -1 0 0
vn 0 -1 0
vn 1 0 0
vn 0 -1 0
vn -1 0 0
g 
f 1/1/1 4/2/4 3/3/3
f 91/4/91 6/5/6 5/6/5
f 87/7/87 8/8/8 7/9/7
f 83/10/83 93/11/93 95/12/95
f 94/13/94 86/14/86 90/15/90
f 84/16/84 92/17/92 88/18/88
f 9/19/9 12/20/12 11/21/11
f 17/22/17 19/23/19 20/24/20
f 13/25/13 16/26/16 15/27/15
f 63/28/63 77/29/77 79/30/79
f 78/31/78 65/32/65 71/33/71
f 64/34/64 74/35/74 68/36/68
f 21/37/21 23/38/23 24/39/24
f 47/40/47 26/41/26 44/42/44
f 38/43/38 28/44/28 35/45/35
f 32/46/32 41/47/41 29/48/29
f 75/49/75 48/50/48 51/51/51
f 57/52/57 42/53/42 45/54/45
f 73/55/73 39/56/39 49/57/49
f 55/58/55 46/59/46 36/60/36
f 67/61/67 33/62/33 40/63/40
f 53/64/53 37/65/37 30/66/30
f 70/67/70 52/68/52 34/69/34
f 60/70/60 31/71/31 43/72/43
f 31/73/31 60/74/60 54/75/54
f 52/76/52 70/77/70 76/78/76
f 37/79/37 53/80/53 56/81/56
f 33/82/33 67/83/67 69/84/69
f 46/85/46 55/86/55 58/87/58
f 39/88/39 73/89/73 66/90/66
f 42/91/42 57/92/57 59/93/59
f 48/94/48 75/95/75 72/96/72
f 41/97/41 32/98/32 50/99/50
f 28/100/28 38/101/38 27/102/27
f 26/103/26 47/104/47 25/105/25
f 23/106/23 21/107/21 22/108/22
f 74/109/74 64/110/64 80/111/80
f 65/112/65 78/113/78 62/114/62
f 77/115/77 63/116/63 61/117/61
f 16/118/16 13/119/13 14/120/14
f 19/121/19 17/122/17 18/123/18
f 12/124/12 9/125/9 10/126/10
f 92/127/92 84/128/84 96/129/96
f 86/130/86 94/131/94 82/132/82
f 93/133/93 83/134/83 81/135/81
f 8/136/8 87/137/87 85/138/85
f 6/139/6 91/140/91 89/141/89
f 4/142/4 1/143/1 2/144/2
