# File exported by Houdini 17.0.352 (www.sidefx.com)
# 84 points
# 84 vertices
# 28 primitives
# Bounds: [-0.5, -0.5, -0.5] to [0.5, 0.5, 0.5]
g 
v 0.5 -0.5 -0.5
v 0.5 -0.5 0.5
v -0.5 -0.5 0.5
v -0.5 -0.5 -0.5
v 0.5 0.5 -0.5
v 0.5 0.5 0.5
v -0.5 0.5 0.5
v -0.5 0.5 -0.5
v -0.455909014 0.5 -0.5
v -0.455909014 0.5 0.5
v 0.455909014 0.5 0.5
v 0.455909014 0.5 -0.5
v 0.455909014 0.423076987 0.5
v -0.455909014 0.423076987 0.5
v -0.455909014 0.423076987 -0.5
v 0.455909014 0.423076987 -0.5
v 0.455909014 0.423076987 -0.5
v 0.455909014 0.423076987 -0.5
v 0.455909014 0.423076987 -0.5
v 0.455909014 0.423076987 -0.5
v 0.455909014 0.423076987 -0.5
v 0.455909014 0.423076987 -0.5
v 0.455909014 0.423076987 -0.5
v -0.455909014 0.423076987 -0.5
v -0.455909014 0.423076987 -0.5
v -0.455909014 0.423076987 -0.5
v -0.455909014 0.423076987 -0.5
v -0.455909014 0.423076987 0.5
v -0.455909014 0.423076987 0.5
v -0.455909014 0.423076987 0.5
v -0.455909014 0.423076987 0.5
v -0.455909014 0.423076987 0.5
v -0.455909014 0.423076987 0.5
v 0.455909014 0.423076987 0.5
v 0.455909014 0.423076987 0.5
v 0.455909014 0.423076987 0.5
v 0.455909014 0.423076987 0.5
v 0.455909014 0.423076987 0.5
v 0.455909014 0.5 -0.5
v 0.455909014 0.5 -0.5
v 0.455909014 0.5 0.5
v 0.455909014 0.5 0.5
v 0.455909014 0.5 0.5
v 0.455909014 0.5 0.5
v -0.455909014 0.5 0.5
v -0.455909014 0.5 0.5
v -0.455909014 0.5 0.5
v -0.455909014 0.5 -0.5
v -0.455909014 0.5 -0.5
v -0.455909014 0.5 -0.5
v -0.5 0.5 -0.5
v -0.5 0.5 -0.5
v -0.5 0.5 -0.5
v -0.5 0.5 -0.5
v -0.5 0.5 0.5
v -0.5 0.5 0.5
v -0.5 0.5 0.5
v -0.5 0.5 0.5
v 0.5 0.5 0.5
v 0.5 0.5 0.5
v 0.5 0.5 0.5
v 0.5 0.5 0.5
v 0.5 0.5 -0.5
v 0.5 0.5 -0.5
v 0.5 0.5 -0.5
v 0.5 0.5 -0.5
v -0.5 -0.5 -0.5
v -0.5 -0.5 -0.5
v -0.5 -0.5 -0.5
v -0.5 -0.5 -0.5
v -0.5 -0.5 -0.5
v -0.5 -0.5 -0.5
v -0.5 -0.5 0.5
v -0.5 -0.5 0.5
v -0.5 -0.5 0.5
v -0.5 -0.5 0.5
v 0.5 -0.5 0.5
v 0.5 -0.5 0.5
v 0.5 -0.5 0.5
v 0.5 -0.5 0.5
v 0.5 -0.5 -0.5
v 0.5 -0.5 -0.5
v 0.5 -0.5 -0.5
v 0.5 -0.5 -0.5
vt 1.01292348 -0.000625908375 0
vt -0.013896551 1.00002599 0
vt 1.00678182 1.00002289 0
vt -0.0138945505 1.00002599 0
vt -0.00775280222 -0.000622913241 0
vt 0.00623419881 -0.000622913241 0
vt 0.99893856 -0.000625908375 0
vt 1.00678277 1.00002289 0
vt 0.992796779 1.00002289 0
vt 0.00623319671 -0.000622913241 0
vt -0.0077548027 -0.000622913241 0
vt 9.14484262e-05 1.00002599 0
vt 1.01292562 -0.000625908375 0
vt 0 1 0.49609375
vt 1 1 0.49609375
vt 1 2.98023224e-08 0.50390625
vt 0 2.98023224e-08 0.50390625
vn 0 -1 0
vn 0 -1 0
vn 0 0 1
vn 0 -1 0
vn 0 1 0
vn 1 0 0
vn 0 1 0
vn 0 1 0
vn 0 0 -1
vn 0 1 0
vn 0 1 0
vn 0 1 0
vn 0 0 1
vn 0 0 1
vn 0 0 -1
vn 0 1 0
vn -1 0 0
vn 0 1 0
vn -1 0 0
vn 0 0 -1
vn 0 0 -1
vn 0 0 -1
vn 0 0 -1
vn 0 1 0
vn 1 0 0
vn 0 0 -1
vn 0 0 -1
vn 0 1 0
vn 1 0 0
vn 0 0 1
vn 0 0 1
vn 0 1 0
vn 1 0 0
vn 0 1 0
vn 0 0 1
vn 0 0 1
vn 0 0 1
vn -1 0 0
vn -1 0 0
vn 0 0 -1
vn -1 0 0
vn 0 0 1
vn -1 0 0
vn 0 1 0
vn 1 0 0
vn 0 0 1
vn 0 1 0
vn 1 0 0
vn 1 0 0
vn 0 1 0
vn 0 0 -1
vn -1 0 0
vn 0 1 0
vn 0 0 -1
vn -1 0 0
vn 0 0 1
vn 0 0 1
vn -1 0 0
vn 0 0 1
vn 0 0 1
vn 0 1 0
vn 1 0 0
vn 1 0 0
vn 0 1 0
vn 0 0 -1
vn 0 0 -1
vn -1 0 0
vn -1 0 0
vn 0 0 -1
vn 0 0 -1
vn 0 0 -1
vn 0 -1 0
vn -1 0 0
vn 0 0 1
vn 0 0 1
vn 0 -1 0
vn 0 0 1
vn 0 0 1
vn 1 0 0
vn 0 -1 0
vn 1 0 0
vn 1 0 0
vn 0 0 -1
vn 0 0 -1
g 
f 2/1/2 4/2/4 1/3/1
f 8/4/8 7/5/7 10/6/10
f 11/7/11 5/8/5 12/9/12
f 14/10/14 3/11/3 13/7/13
f 73/11/73 55/5/55 67/2/67
f 15/12/15 51/4/51 9/12/9
f 81/3/81 63/8/63 6/13/6
f 28/14/28 34/15/34 16/16/16
f 29/10/29 48/12/48 45/6/45
f 17/9/17 41/7/41 39/9/39
f 30/10/30 56/5/56 74/11/74
f 35/7/35 59/13/59 42/7/42
f 36/7/36 75/11/75 77/1/77
f 37/7/37 78/1/78 60/13/60
f 31/10/31 46/6/46 57/5/57
f 68/2/68 58/5/58 52/4/52
f 32/14/32 18/16/18 24/17/24
f 38/7/38 43/7/43 19/9/19
f 25/12/25 49/12/49 33/10/33
f 53/4/53 47/6/47 50/12/50
f 61/13/61 64/8/64 44/7/44
f 82/3/82 62/13/62 79/1/79
f 20/9/20 40/9/40 65/8/65
f 26/12/26 69/2/69 54/4/54
f 21/9/21 70/2/70 27/12/27
f 22/9/22 66/8/66 83/3/83
f 23/9/23 84/3/84 71/2/71
f 80/1/80 76/11/76 72/2/72
